<svg width="57" height="57" viewBox="0 0 57 57" fill="none" xmlns="http://www.w3.org/2000/svg">
<mask id="mask0_338_1259" style="mask-type:alpha" maskUnits="userSpaceOnUse" x="0" y="0" width="57" height="57">
<rect x="28.2842" width="40" height="40" transform="rotate(45 28.2842 0)" fill="#D9D9D9"/>
</mask>
<g mask="url(#mask0_338_1259)">
<path d="M21.2985 49.5827L3.8608 32.145C1.72854 30.0127 1.72854 26.5556 3.8608 24.4234C5.99307 22.2911 9.45015 22.2911 11.5824 24.4234L23.1648 36.0058C23.5207 36.5396 24.3528 36.2877 24.3528 35.6461L24.3528 10.1681C24.3528 7.05172 26.8791 4.52539 29.9955 4.52539C33.1119 4.52539 35.6382 7.05172 35.6382 10.1681L35.6382 43.643C35.6382 48.2822 31.8774 52.043 27.2382 52.043C25.0104 52.043 22.8738 51.158 21.2985 49.5827Z" fill="#EEEEEE"/>
<path d="M35.6377 31.8477L50.4869 32.4416L51.3779 31.5507C53.5102 29.4184 53.5102 25.9613 51.3779 23.8291C49.2456 21.6968 45.7885 21.6968 43.6563 23.8291L35.6377 31.8477Z" fill="#EEEEEE"/>
</g>
</svg>
