<svg width="42" height="42" viewBox="0 0 42 42" fill="none" xmlns="http://www.w3.org/2000/svg">
<path d="M30.1206 42H5.46C2.44453 42 0 39.5555 0 36.54C0 33.5245 2.44453 31.08 5.46 31.08H21.84C22.4691 31.2058 22.8793 30.4393 22.4257 29.9857L4.41 11.97C2.20638 9.76638 2.20638 6.19362 4.41 3.99C6.61362 1.78638 10.1864 1.78638 12.39 3.99L36.0603 27.6603C39.3407 30.9407 39.3407 36.2593 36.0603 39.5397C34.485 41.115 32.3484 42 30.1206 42Z" fill="#413850"/>
<path d="M27.7197 19.3203L38.6397 9.24031V7.98031C38.6397 4.96484 36.1952 2.52031 33.1797 2.52031C30.1643 2.52031 27.7197 4.96484 27.7197 7.98031V19.3203Z" fill="#413850"/>
</svg>
