<svg width="42" height="42" viewBox="0 0 42 42" fill="none" xmlns="http://www.w3.org/2000/svg">
<g opacity="0.25">
<path d="M30.1206 0H5.46C2.44453 0 0 2.44452 0 5.46C0 8.47548 2.44453 10.92 5.46 10.92H21.84C22.4691 10.7942 22.8793 11.5607 22.4257 12.0143L4.41 30.03C2.20638 32.2336 2.20638 35.8064 4.41 38.01C6.61362 40.2136 10.1864 40.2136 12.39 38.01L36.0603 14.3397C39.3407 11.0593 39.3407 5.74071 36.0603 2.4603C34.485 0.884997 32.3484 0 30.1206 0Z" fill="white"/>
<path d="M27.72 22.6797L38.64 32.7597V34.0197C38.64 37.0352 36.1954 39.4797 33.18 39.4797C30.1645 39.4797 27.72 37.0352 27.72 34.0197V22.6797Z" fill="white"/>
</g>
</svg>
