<svg width="43" height="42" viewBox="0 0 43 42" fill="none" xmlns="http://www.w3.org/2000/svg">
<g opacity="0.35">
<path d="M30.6206 0H5.96C2.94453 0 0.5 2.44452 0.5 5.46C0.5 8.47548 2.94453 10.92 5.96 10.92H22.34C22.9691 10.7942 23.3793 11.5607 22.9257 12.0143L4.91 30.03C2.70638 32.2336 2.70638 35.8064 4.91 38.01C7.11362 40.2136 10.6864 40.2136 12.89 38.01L36.5603 14.3397C39.8407 11.0593 39.8407 5.74071 36.5603 2.4603C34.985 0.884997 32.8484 0 30.6206 0Z" fill="#8958F0"/>
<path d="M28.2197 22.6797L39.1397 32.7597V34.0197C39.1397 37.0352 36.6952 39.4797 33.6797 39.4797C30.6643 39.4797 28.2197 37.0352 28.2197 34.0197V22.6797Z" fill="#8958F0"/>
</g>
</svg>
