<svg width="693" height="693" viewBox="0 0 693 693" fill="none" xmlns="http://www.w3.org/2000/svg">
<g opacity="0.05">
<circle opacity="0.1" cx="7.07143" cy="176.786" r="7.07143" fill="#6B36C9"/>
<circle opacity="0.2" cx="49.5001" cy="176.786" r="7.07143" fill="#6B36C9"/>
<circle opacity="0.4" cx="91.9288" cy="176.786" r="7.07143" fill="#6B36C9"/>
<circle opacity="0.5" cx="134.358" cy="176.786" r="7.07143" fill="#6B36C9"/>
<circle opacity="0.5" cx="176.785" cy="176.786" r="7.07143" fill="#6B36C9"/>
<circle opacity="0.6" cx="219.214" cy="176.786" r="7.07143" fill="#6B36C9"/>
<circle opacity="0.6" cx="261.643" cy="176.786" r="7.07143" fill="#6B36C9"/>
<circle opacity="0.6" cx="304.071" cy="176.786" r="7.07143" fill="#6B36C9"/>
<circle opacity="0.6" cx="388.929" cy="176.786" r="7.07143" fill="#6B36C9"/>
<circle opacity="0.6" cx="431.358" cy="176.786" r="7.07143" fill="#6B36C9"/>
<circle opacity="0.6" cx="473.785" cy="176.786" r="7.07143" fill="#6B36C9"/>
<circle opacity="0.5" cx="516.214" cy="176.786" r="7.07143" fill="#6B36C9"/>
<circle opacity="0.5" cx="558.643" cy="176.786" r="7.07143" fill="#6B36C9"/>
<circle opacity="0.4" cx="601.071" cy="176.786" r="7.07143" fill="#6B36C9"/>
<circle opacity="0.2" cx="643.5" cy="176.786" r="7.07143" fill="#6B36C9"/>
<circle opacity="0.1" cx="685.929" cy="176.786" r="7.07143" fill="#6B36C9"/>
<circle opacity="0.1" cx="7.07143" cy="134.357" r="7.07143" fill="#6B36C9"/>
<circle opacity="0.2" cx="49.5001" cy="134.357" r="7.07143" fill="#6B36C9"/>
<circle opacity="0.2" cx="91.9288" cy="134.357" r="7.07143" fill="#6B36C9"/>
<circle opacity="0.4" cx="134.358" cy="134.357" r="7.07143" fill="#6B36C9"/>
<circle opacity="0.5" cx="176.785" cy="134.357" r="7.07143" fill="#6B36C9"/>
<circle opacity="0.5" cx="219.214" cy="134.357" r="7.07143" fill="#6B36C9"/>
<circle opacity="0.5" cx="261.643" cy="134.357" r="7.07143" fill="#6B36C9"/>
<circle opacity="0.5" cx="304.071" cy="134.357" r="7.07143" fill="#6B36C9"/>
<circle opacity="0.5" cx="388.929" cy="134.357" r="7.07143" fill="#6B36C9"/>
<circle opacity="0.5" cx="431.358" cy="134.357" r="7.07143" fill="#6B36C9"/>
<circle opacity="0.5" cx="473.785" cy="134.357" r="7.07143" fill="#6B36C9"/>
<circle opacity="0.5" cx="516.214" cy="134.357" r="7.07143" fill="#6B36C9"/>
<circle opacity="0.4" cx="558.643" cy="134.357" r="7.07143" fill="#6B36C9"/>
<circle opacity="0.2" cx="601.071" cy="134.357" r="7.07143" fill="#6B36C9"/>
<circle opacity="0.2" cx="643.5" cy="134.357" r="7.07143" fill="#6B36C9"/>
<circle opacity="0.1" cx="685.929" cy="134.357" r="7.07143" fill="#6B36C9"/>
<circle opacity="0.1" cx="7.07143" cy="91.9284" r="7.07143" fill="#6B36C9"/>
<circle opacity="0.1" cx="49.5001" cy="91.9284" r="7.07143" fill="#6B36C9"/>
<circle opacity="0.1" cx="49.5001" cy="49.5001" r="7.07143" fill="#6B36C9"/>
<circle opacity="0.2" cx="91.9288" cy="91.9284" r="7.07143" fill="#6B36C9"/>
<circle opacity="0.1" cx="91.9288" cy="49.5001" r="7.07143" fill="#6B36C9"/>
<circle opacity="0.1" cx="91.9288" cy="7.07143" r="7.07143" fill="#6B36C9"/>
<circle opacity="0.2" cx="134.358" cy="91.9284" r="7.07143" fill="#6B36C9"/>
<circle opacity="0.2" cx="134.358" cy="49.5001" r="7.07143" fill="#6B36C9"/>
<circle opacity="0.1" cx="134.358" cy="7.07143" r="7.07143" fill="#6B36C9"/>
<circle opacity="0.4" cx="176.785" cy="91.9284" r="7.07143" fill="#6B36C9"/>
<circle opacity="0.2" cx="176.785" cy="49.5001" r="7.07143" fill="#6B36C9"/>
<circle opacity="0.1" cx="176.785" cy="7.07143" r="7.07143" fill="#6B36C9"/>
<circle opacity="0.4" cx="219.214" cy="91.9284" r="7.07143" fill="#6B36C9"/>
<circle opacity="0.2" cx="219.214" cy="49.5001" r="7.07143" fill="#6B36C9"/>
<circle opacity="0.1" cx="219.214" cy="7.07143" r="7.07143" fill="#6B36C9"/>
<circle opacity="0.4" cx="261.643" cy="91.9284" r="7.07143" fill="#6B36C9"/>
<circle opacity="0.2" cx="261.643" cy="49.5001" r="7.07143" fill="#6B36C9"/>
<circle opacity="0.1" cx="261.643" cy="7.07143" r="7.07143" fill="#6B36C9"/>
<circle opacity="0.4" cx="304.071" cy="91.9284" r="7.07143" fill="#6B36C9"/>
<circle opacity="0.2" cx="304.071" cy="49.5001" r="7.07143" fill="#6B36C9"/>
<circle opacity="0.1" cx="304.071" cy="7.07143" r="7.07143" fill="#6B36C9"/>
<circle opacity="0.4" cx="388.929" cy="91.9284" r="7.07143" fill="#6B36C9"/>
<circle opacity="0.2" cx="388.929" cy="49.5001" r="7.07143" fill="#6B36C9"/>
<circle opacity="0.1" cx="388.929" cy="7.07143" r="7.07143" fill="#6B36C9"/>
<circle opacity="0.4" cx="431.358" cy="91.9284" r="7.07143" fill="#6B36C9"/>
<circle opacity="0.2" cx="431.358" cy="49.5001" r="7.07143" fill="#6B36C9"/>
<circle opacity="0.1" cx="431.358" cy="7.07143" r="7.07143" fill="#6B36C9"/>
<circle opacity="0.4" cx="473.785" cy="91.9284" r="7.07143" fill="#6B36C9"/>
<circle opacity="0.2" cx="473.785" cy="49.5001" r="7.07143" fill="#6B36C9"/>
<circle opacity="0.1" cx="473.785" cy="7.07143" r="7.07143" fill="#6B36C9"/>
<circle opacity="0.4" cx="516.214" cy="91.9284" r="7.07143" fill="#6B36C9"/>
<circle opacity="0.2" cx="516.214" cy="49.5001" r="7.07143" fill="#6B36C9"/>
<circle opacity="0.1" cx="516.214" cy="7.07143" r="7.07143" fill="#6B36C9"/>
<circle opacity="0.2" cx="558.643" cy="91.9284" r="7.07143" fill="#6B36C9"/>
<circle opacity="0.2" cx="558.643" cy="49.5001" r="7.07143" fill="#6B36C9"/>
<circle opacity="0.1" cx="558.643" cy="7.07143" r="7.07143" fill="#6B36C9"/>
<circle opacity="0.2" cx="601.071" cy="91.9284" r="7.07143" fill="#6B36C9"/>
<circle opacity="0.1" cx="601.071" cy="49.5001" r="7.07143" fill="#6B36C9"/>
<circle opacity="0.1" cx="601.071" cy="7.07143" r="7.07143" fill="#6B36C9"/>
<circle opacity="0.1" cx="643.5" cy="91.9284" r="7.07143" fill="#6B36C9"/>
<circle opacity="0.1" cx="643.5" cy="49.5001" r="7.07143" fill="#6B36C9"/>
<circle opacity="0.1" cx="685.929" cy="91.9284" r="7.07143" fill="#6B36C9"/>
<circle opacity="0.1" cx="7.07143" cy="388.929" r="7.07143" fill="#6B36C9"/>
<circle opacity="0.1" cx="7.07143" cy="601.071" r="7.07143" fill="#6B36C9"/>
<circle opacity="0.1" cx="49.5001" cy="601.071" r="7.07143" fill="#6B36C9"/>
<circle opacity="0.2" cx="49.5001" cy="388.929" r="7.07143" fill="#6B36C9"/>
<circle opacity="0.2" cx="91.9288" cy="601.071" r="7.07143" fill="#6B36C9"/>
<circle opacity="0.1" cx="49.5001" cy="643.5" r="7.07143" fill="#6B36C9"/>
<circle opacity="0.2" cx="134.358" cy="601.071" r="7.07143" fill="#6B36C9"/>
<circle opacity="0.4" cx="91.9288" cy="388.929" r="7.07143" fill="#6B36C9"/>
<circle opacity="0.4" cx="176.785" cy="601.071" r="7.07143" fill="#6B36C9"/>
<circle opacity="0.1" cx="91.9288" cy="643.5" r="7.07143" fill="#6B36C9"/>
<circle opacity="0.1" cx="91.9288" cy="685.929" r="7.07143" fill="#6B36C9"/>
<circle opacity="0.4" cx="219.214" cy="601.071" r="7.07143" fill="#6B36C9"/>
<circle opacity="0.5" cx="134.358" cy="388.929" r="7.07143" fill="#6B36C9"/>
<circle opacity="0.4" cx="261.643" cy="601.071" r="7.07143" fill="#6B36C9"/>
<circle opacity="0.2" cx="134.358" cy="643.5" r="7.07143" fill="#6B36C9"/>
<circle opacity="0.1" cx="134.358" cy="685.929" r="7.07143" fill="#6B36C9"/>
<circle opacity="0.4" cx="304.071" cy="601.071" r="7.07143" fill="#6B36C9"/>
<circle opacity="0.6" cx="176.785" cy="388.929" r="7.07143" fill="#6B36C9"/>
<circle opacity="0.2" cx="176.785" cy="643.5" r="7.07143" fill="#6B36C9"/>
<circle opacity="0.1" cx="176.785" cy="685.929" r="7.07143" fill="#6B36C9"/>
<circle opacity="0.4" cx="388.929" cy="601.071" r="7.07143" fill="#6B36C9"/>
<circle opacity="0.7" cx="219.214" cy="388.929" r="7.07143" fill="#6B36C9"/>
<circle opacity="0.4" cx="431.358" cy="601.071" r="7.07143" fill="#6B36C9"/>
<circle opacity="0.2" cx="219.214" cy="643.5" r="7.07143" fill="#6B36C9"/>
<circle opacity="0.1" cx="219.214" cy="685.929" r="7.07143" fill="#6B36C9"/>
<circle opacity="0.4" cx="473.785" cy="601.071" r="7.07143" fill="#6B36C9"/>
<circle opacity="0.8" cx="261.643" cy="388.929" r="7.07143" fill="#6B36C9"/>
<circle opacity="0.4" cx="516.214" cy="601.071" r="7.07143" fill="#6B36C9"/>
<circle opacity="0.2" cx="261.643" cy="643.5" r="7.07143" fill="#6B36C9"/>
<circle opacity="0.1" cx="261.643" cy="685.929" r="7.07143" fill="#6B36C9"/>
<circle opacity="0.2" cx="558.643" cy="601.071" r="7.07143" fill="#6B36C9"/>
<circle opacity="0.9" cx="304.071" cy="388.929" r="7.07143" fill="#6B36C9"/>
<circle opacity="0.2" cx="601.071" cy="601.071" r="7.07143" fill="#6B36C9"/>
<circle opacity="0.2" cx="304.071" cy="643.5" r="7.07143" fill="#6B36C9"/>
<circle opacity="0.1" cx="304.071" cy="685.929" r="7.07143" fill="#6B36C9"/>
<circle opacity="0.1" cx="643.5" cy="601.071" r="7.07143" fill="#6B36C9"/>
<circle opacity="0.1" cx="685.929" cy="601.071" r="7.07143" fill="#6B36C9"/>
<circle opacity="0.9" cx="388.929" cy="388.929" r="7.07143" fill="#6B36C9"/>
<circle opacity="0.2" cx="388.929" cy="643.5" r="7.07143" fill="#6B36C9"/>
<circle opacity="0.1" cx="388.929" cy="685.929" r="7.07143" fill="#6B36C9"/>
<circle opacity="0.8" cx="431.358" cy="388.929" r="7.07143" fill="#6B36C9"/>
<circle opacity="0.2" cx="431.358" cy="643.5" r="7.07143" fill="#6B36C9"/>
<circle opacity="0.1" cx="431.358" cy="685.929" r="7.07143" fill="#6B36C9"/>
<circle opacity="0.7" cx="473.785" cy="388.929" r="7.07143" fill="#6B36C9"/>
<circle opacity="0.2" cx="473.785" cy="643.5" r="7.07143" fill="#6B36C9"/>
<circle opacity="0.1" cx="473.785" cy="685.929" r="7.07143" fill="#6B36C9"/>
<circle opacity="0.6" cx="516.214" cy="388.929" r="7.07143" fill="#6B36C9"/>
<circle opacity="0.2" cx="516.214" cy="643.5" r="7.07143" fill="#6B36C9"/>
<circle opacity="0.1" cx="516.214" cy="685.929" r="7.07143" fill="#6B36C9"/>
<circle opacity="0.5" cx="558.643" cy="388.929" r="7.07143" fill="#6B36C9"/>
<circle opacity="0.2" cx="558.643" cy="643.5" r="7.07143" fill="#6B36C9"/>
<circle opacity="0.1" cx="558.643" cy="685.929" r="7.07143" fill="#6B36C9"/>
<circle opacity="0.4" cx="601.071" cy="388.929" r="7.07143" fill="#6B36C9"/>
<circle opacity="0.1" cx="601.071" cy="643.5" r="7.07143" fill="#6B36C9"/>
<circle opacity="0.1" cx="601.071" cy="685.929" r="7.07143" fill="#6B36C9"/>
<circle opacity="0.2" cx="643.5" cy="388.929" r="7.07143" fill="#6B36C9"/>
<circle opacity="0.1" cx="643.5" cy="643.5" r="7.07143" fill="#6B36C9"/>
<circle opacity="0.1" cx="685.929" cy="388.929" r="7.07143" fill="#6B36C9"/>
<circle opacity="0.1" cx="7.07143" cy="558.643" r="7.07143" fill="#6B36C9"/>
<circle opacity="0.2" cx="49.5001" cy="558.643" r="7.07143" fill="#6B36C9"/>
<circle opacity="0.2" cx="91.9288" cy="558.643" r="7.07143" fill="#6B36C9"/>
<circle opacity="0.4" cx="134.358" cy="558.643" r="7.07143" fill="#6B36C9"/>
<circle opacity="0.5" cx="176.785" cy="558.643" r="7.07143" fill="#6B36C9"/>
<circle opacity="0.5" cx="219.214" cy="558.643" r="7.07143" fill="#6B36C9"/>
<circle opacity="0.5" cx="261.643" cy="558.643" r="7.07143" fill="#6B36C9"/>
<circle opacity="0.5" cx="304.071" cy="558.643" r="7.07143" fill="#6B36C9"/>
<circle cx="346.5" cy="346.5" r="7.07143" fill="#6B36C9"/>
<circle opacity="0.9" cx="388.929" cy="346.5" r="7.07143" fill="#6B36C9"/>
<circle opacity="0.5" cx="388.929" cy="558.643" r="7.07143" fill="#6B36C9"/>
<circle opacity="0.8" cx="431.358" cy="346.5" r="7.07143" fill="#6B36C9"/>
<circle opacity="0.5" cx="431.358" cy="558.643" r="7.07143" fill="#6B36C9"/>
<circle opacity="0.7" cx="473.785" cy="346.5" r="7.07143" fill="#6B36C9"/>
<circle opacity="0.5" cx="473.785" cy="558.643" r="7.07143" fill="#6B36C9"/>
<circle opacity="0.6" cx="516.214" cy="346.5" r="7.07143" fill="#6B36C9"/>
<circle opacity="0.5" cx="516.214" cy="558.643" r="7.07143" fill="#6B36C9"/>
<circle opacity="0.5" cx="558.643" cy="346.5" r="7.07143" fill="#6B36C9"/>
<circle opacity="0.4" cx="558.643" cy="558.643" r="7.07143" fill="#6B36C9"/>
<circle opacity="0.4" cx="601.071" cy="346.5" r="7.07143" fill="#6B36C9"/>
<circle opacity="0.2" cx="601.071" cy="558.643" r="7.07143" fill="#6B36C9"/>
<circle opacity="0.3" cx="643.5" cy="346.5" r="7.07143" fill="#6B36C9"/>
<circle opacity="0.2" cx="643.5" cy="558.643" r="7.07143" fill="#6B36C9"/>
<circle opacity="0.2" cx="685.929" cy="346.5" r="7.07143" fill="#6B36C9"/>
<circle opacity="0.9" cx="346.5" cy="304.071" r="7.07143" transform="rotate(-90 346.5 304.071)" fill="#6B36C9"/>
<circle opacity="0.8" cx="346.5" cy="261.642" r="7.07143" transform="rotate(-90 346.5 261.642)" fill="#6B36C9"/>
<circle opacity="0.7" cx="346.5" cy="219.214" r="7.07143" transform="rotate(-90 346.5 219.214)" fill="#6B36C9"/>
<circle opacity="0.6" cx="346.5" cy="176.786" r="7.07143" transform="rotate(-90 346.5 176.786)" fill="#6B36C9"/>
<circle opacity="0.5" cx="346.5" cy="134.357" r="7.07143" transform="rotate(-90 346.5 134.357)" fill="#6B36C9"/>
<circle opacity="0.4" cx="346.5" cy="91.9286" r="7.07143" transform="rotate(-90 346.5 91.9286)" fill="#6B36C9"/>
<circle opacity="0.3" cx="346.5" cy="49.4999" r="7.07143" transform="rotate(-90 346.5 49.4999)" fill="#6B36C9"/>
<circle opacity="0.2" cx="346.5" cy="7.07164" r="7.07143" transform="rotate(-90 346.5 7.07164)" fill="#6B36C9"/>
<circle opacity="0.9" cx="346.5" cy="388.929" r="7.07143" transform="rotate(90 346.5 388.929)" fill="#6B36C9"/>
<circle opacity="0.8" cx="346.5" cy="431.358" r="7.07143" transform="rotate(90 346.5 431.358)" fill="#6B36C9"/>
<circle opacity="0.7" cx="346.5" cy="473.785" r="7.07143" transform="rotate(90 346.5 473.785)" fill="#6B36C9"/>
<circle opacity="0.6" cx="346.5" cy="516.214" r="7.07143" transform="rotate(90 346.5 516.214)" fill="#6B36C9"/>
<circle opacity="0.5" cx="346.5" cy="558.643" r="7.07143" transform="rotate(90 346.5 558.643)" fill="#6B36C9"/>
<circle opacity="0.4" cx="346.5" cy="601.071" r="7.07143" transform="rotate(90 346.5 601.071)" fill="#6B36C9"/>
<circle opacity="0.3" cx="346.5" cy="643.5" r="7.07143" transform="rotate(90 346.5 643.5)" fill="#6B36C9"/>
<circle opacity="0.2" cx="346.5" cy="685.929" r="7.07143" transform="rotate(90 346.5 685.929)" fill="#6B36C9"/>
<circle opacity="0.9" cx="7.07143" cy="7.07143" r="7.07143" transform="matrix(-1 0 0 1 311.143 339.429)" fill="#6B36C9"/>
<circle opacity="0.8" cx="7.07143" cy="7.07143" r="7.07143" transform="matrix(-1 0 0 1 268.714 339.429)" fill="#6B36C9"/>
<circle opacity="0.7" cx="7.07143" cy="7.07143" r="7.07143" transform="matrix(-1 0 0 1 226.286 339.429)" fill="#6B36C9"/>
<circle opacity="0.6" cx="7.07143" cy="7.07143" r="7.07143" transform="matrix(-1 0 0 1 183.857 339.429)" fill="#6B36C9"/>
<circle opacity="0.5" cx="7.07143" cy="7.07143" r="7.07143" transform="matrix(-1 0 0 1 141.429 339.429)" fill="#6B36C9"/>
<circle opacity="0.4" cx="7.07143" cy="7.07143" r="7.07143" transform="matrix(-1 0 0 1 99 339.429)" fill="#6B36C9"/>
<circle opacity="0.3" cx="7.07143" cy="7.07143" r="7.07143" transform="matrix(-1 0 0 1 56.5713 339.429)" fill="#6B36C9"/>
<circle opacity="0.2" cx="7.07143" cy="7.07143" r="7.07143" transform="matrix(-1 0 0 1 14.1426 339.429)" fill="#6B36C9"/>
<circle opacity="0.1" cx="685.929" cy="558.643" r="7.07143" fill="#6B36C9"/>
<circle opacity="0.1" cx="7.07143" cy="304.071" r="7.07143" fill="#6B36C9"/>
<circle opacity="0.1" cx="7.07143" cy="516.214" r="7.07143" fill="#6B36C9"/>
<circle opacity="0.1" cx="7.07143" cy="261.643" r="7.07143" fill="#6B36C9"/>
<circle opacity="0.1" cx="7.07143" cy="473.785" r="7.07143" fill="#6B36C9"/>
<circle opacity="0.1" cx="7.07143" cy="219.214" r="7.07143" fill="#6B36C9"/>
<circle opacity="0.1" cx="7.07143" cy="431.358" r="7.07143" fill="#6B36C9"/>
<circle opacity="0.2" cx="49.5001" cy="304.071" r="7.07143" fill="#6B36C9"/>
<circle opacity="0.2" cx="49.5001" cy="516.214" r="7.07143" fill="#6B36C9"/>
<circle opacity="0.2" cx="49.5001" cy="261.643" r="7.07143" fill="#6B36C9"/>
<circle opacity="0.2" cx="49.5001" cy="473.785" r="7.07143" fill="#6B36C9"/>
<circle opacity="0.2" cx="49.5001" cy="219.214" r="7.07143" fill="#6B36C9"/>
<circle opacity="0.2" cx="49.5001" cy="431.358" r="7.07143" fill="#6B36C9"/>
<circle opacity="0.4" cx="91.9288" cy="304.071" r="7.07143" fill="#6B36C9"/>
<circle opacity="0.4" cx="91.9288" cy="516.214" r="7.07143" fill="#6B36C9"/>
<circle opacity="0.4" cx="91.9288" cy="261.643" r="7.07143" fill="#6B36C9"/>
<circle opacity="0.4" cx="91.9288" cy="473.785" r="7.07143" fill="#6B36C9"/>
<circle opacity="0.4" cx="91.9288" cy="219.214" r="7.07143" fill="#6B36C9"/>
<circle opacity="0.4" cx="91.9288" cy="431.358" r="7.07143" fill="#6B36C9"/>
<circle opacity="0.5" cx="134.358" cy="304.071" r="7.07143" fill="#6B36C9"/>
<circle opacity="0.5" cx="134.358" cy="516.214" r="7.07143" fill="#6B36C9"/>
<circle opacity="0.5" cx="134.358" cy="261.643" r="7.07143" fill="#6B36C9"/>
<circle opacity="0.5" cx="134.358" cy="473.785" r="7.07143" fill="#6B36C9"/>
<circle opacity="0.5" cx="134.358" cy="219.214" r="7.07143" fill="#6B36C9"/>
<circle opacity="0.5" cx="134.358" cy="431.358" r="7.07143" fill="#6B36C9"/>
<circle opacity="0.6" cx="176.785" cy="304.071" r="7.07143" fill="#6B36C9"/>
<circle opacity="0.5" cx="176.785" cy="516.214" r="7.07143" fill="#6B36C9"/>
<circle opacity="0.6" cx="176.785" cy="261.643" r="7.07143" fill="#6B36C9"/>
<circle opacity="0.6" cx="176.785" cy="473.785" r="7.07143" fill="#6B36C9"/>
<circle opacity="0.6" cx="176.785" cy="219.214" r="7.07143" fill="#6B36C9"/>
<circle opacity="0.6" cx="176.785" cy="431.358" r="7.07143" fill="#6B36C9"/>
<circle opacity="0.7" cx="219.214" cy="304.071" r="7.07143" fill="#6B36C9"/>
<circle opacity="0.6" cx="219.214" cy="516.214" r="7.07143" fill="#6B36C9"/>
<circle opacity="0.7" cx="219.214" cy="261.643" r="7.07143" fill="#6B36C9"/>
<circle opacity="0.6" cx="219.214" cy="473.785" r="7.07143" fill="#6B36C9"/>
<circle opacity="0.6" cx="219.214" cy="219.214" r="7.07143" fill="#6B36C9"/>
<circle opacity="0.7" cx="219.214" cy="431.358" r="7.07143" fill="#6B36C9"/>
<circle opacity="0.8" cx="261.643" cy="304.071" r="7.07143" fill="#6B36C9"/>
<circle opacity="0.6" cx="261.643" cy="516.214" r="7.07143" fill="#6B36C9"/>
<circle opacity="0.7" cx="261.643" cy="261.643" r="7.07143" fill="#6B36C9"/>
<circle opacity="0.7" cx="261.643" cy="473.785" r="7.07143" fill="#6B36C9"/>
<circle opacity="0.7" cx="261.643" cy="219.214" r="7.07143" fill="#6B36C9"/>
<circle opacity="0.7" cx="261.643" cy="431.358" r="7.07143" fill="#6B36C9"/>
<circle opacity="0.9" cx="304.071" cy="304.071" r="7.07143" fill="#6B36C9"/>
<circle opacity="0.6" cx="304.071" cy="516.214" r="7.07143" fill="#6B36C9"/>
<circle opacity="0.8" cx="304.071" cy="261.643" r="7.07143" fill="#6B36C9"/>
<circle opacity="0.7" cx="304.071" cy="473.785" r="7.07143" fill="#6B36C9"/>
<circle opacity="0.7" cx="304.071" cy="219.214" r="7.07143" fill="#6B36C9"/>
<circle opacity="0.8" cx="304.071" cy="431.358" r="7.07143" fill="#6B36C9"/>
<circle opacity="0.9" cx="388.929" cy="304.071" r="7.07143" fill="#6B36C9"/>
<circle opacity="0.6" cx="388.929" cy="516.214" r="7.07143" fill="#6B36C9"/>
<circle opacity="0.8" cx="388.929" cy="261.643" r="7.07143" fill="#6B36C9"/>
<circle opacity="0.7" cx="388.929" cy="473.785" r="7.07143" fill="#6B36C9"/>
<circle opacity="0.7" cx="388.929" cy="219.214" r="7.07143" fill="#6B36C9"/>
<circle opacity="0.8" cx="388.929" cy="431.358" r="7.07143" fill="#6B36C9"/>
<circle opacity="0.8" cx="431.358" cy="304.071" r="7.07143" fill="#6B36C9"/>
<circle opacity="0.6" cx="431.358" cy="516.214" r="7.07143" fill="#6B36C9"/>
<circle opacity="0.7" cx="431.358" cy="261.643" r="7.07143" fill="#6B36C9"/>
<circle opacity="0.7" cx="431.358" cy="473.785" r="7.07143" fill="#6B36C9"/>
<circle opacity="0.7" cx="431.358" cy="219.214" r="7.07143" fill="#6B36C9"/>
<circle opacity="0.7" cx="431.358" cy="431.358" r="7.07143" fill="#6B36C9"/>
<circle opacity="0.7" cx="473.785" cy="304.071" r="7.07143" fill="#6B36C9"/>
<circle opacity="0.6" cx="473.785" cy="516.214" r="7.07143" fill="#6B36C9"/>
<circle opacity="0.7" cx="473.785" cy="261.643" r="7.07143" fill="#6B36C9"/>
<circle opacity="0.6" cx="473.785" cy="473.785" r="7.07143" fill="#6B36C9"/>
<circle opacity="0.6" cx="473.785" cy="219.214" r="7.07143" fill="#6B36C9"/>
<circle opacity="0.7" cx="473.785" cy="431.358" r="7.07143" fill="#6B36C9"/>
<circle opacity="0.6" cx="516.214" cy="304.071" r="7.07143" fill="#6B36C9"/>
<circle opacity="0.5" cx="516.214" cy="516.214" r="7.07143" fill="#6B36C9"/>
<circle opacity="0.6" cx="516.214" cy="261.643" r="7.07143" fill="#6B36C9"/>
<circle opacity="0.6" cx="516.214" cy="473.785" r="7.07143" fill="#6B36C9"/>
<circle opacity="0.6" cx="516.214" cy="219.214" r="7.07143" fill="#6B36C9"/>
<circle opacity="0.6" cx="516.214" cy="431.358" r="7.07143" fill="#6B36C9"/>
<circle opacity="0.5" cx="558.643" cy="304.071" r="7.07143" fill="#6B36C9"/>
<circle opacity="0.5" cx="558.643" cy="516.214" r="7.07143" fill="#6B36C9"/>
<circle opacity="0.5" cx="558.643" cy="261.643" r="7.07143" fill="#6B36C9"/>
<circle opacity="0.5" cx="558.643" cy="473.785" r="7.07143" fill="#6B36C9"/>
<circle opacity="0.5" cx="558.643" cy="219.214" r="7.07143" fill="#6B36C9"/>
<circle opacity="0.5" cx="558.643" cy="431.358" r="7.07143" fill="#6B36C9"/>
<circle opacity="0.4" cx="601.071" cy="304.071" r="7.07143" fill="#6B36C9"/>
<circle opacity="0.4" cx="601.071" cy="516.214" r="7.07143" fill="#6B36C9"/>
<circle opacity="0.4" cx="601.071" cy="261.643" r="7.07143" fill="#6B36C9"/>
<circle opacity="0.4" cx="601.071" cy="473.785" r="7.07143" fill="#6B36C9"/>
<circle opacity="0.4" cx="601.071" cy="219.214" r="7.07143" fill="#6B36C9"/>
<circle opacity="0.4" cx="601.071" cy="431.358" r="7.07143" fill="#6B36C9"/>
<circle opacity="0.2" cx="643.5" cy="304.071" r="7.07143" fill="#6B36C9"/>
<circle opacity="0.2" cx="643.5" cy="516.214" r="7.07143" fill="#6B36C9"/>
<circle opacity="0.2" cx="643.5" cy="261.643" r="7.07143" fill="#6B36C9"/>
<circle opacity="0.2" cx="643.5" cy="473.785" r="7.07143" fill="#6B36C9"/>
<circle opacity="0.2" cx="643.5" cy="219.214" r="7.07143" fill="#6B36C9"/>
<circle opacity="0.2" cx="643.5" cy="431.358" r="7.07143" fill="#6B36C9"/>
<circle opacity="0.1" cx="685.929" cy="304.071" r="7.07143" fill="#6B36C9"/>
<circle opacity="0.1" cx="685.929" cy="516.214" r="7.07143" fill="#6B36C9"/>
<circle opacity="0.1" cx="685.929" cy="261.643" r="7.07143" fill="#6B36C9"/>
<circle opacity="0.1" cx="685.929" cy="473.785" r="7.07143" fill="#6B36C9"/>
<circle opacity="0.1" cx="685.929" cy="219.214" r="7.07143" fill="#6B36C9"/>
<circle opacity="0.1" cx="685.929" cy="431.358" r="7.07143" fill="#6B36C9"/>
</g>
</svg>
