<svg width="155" height="85" viewBox="0 0 155 85" fill="none" xmlns="http://www.w3.org/2000/svg">
<g clip-path="url(#clip0_338_1413)">
<mask id="mask0_338_1413" style="mask-type:luminance" maskUnits="userSpaceOnUse" x="2" y="14" width="151" height="70">
<path d="M137.044 36.829C115.159 55.8534 69.7649 70.8096 35.8432 70.1732C16.5507 69.8109 5.06089 64.4822 2.76465 56.4533L6.6935 70.19C8.98947 78.2188 20.4796 83.5476 39.772 83.9096C73.6937 84.5462 119.087 69.59 140.972 50.566C150.413 42.3592 153.96 34.7158 152.218 28.626L148.289 14.8891C150.031 20.9789 146.484 28.6225 137.044 36.829Z" fill="white"/>
</mask>
<g mask="url(#mask0_338_1413)">
<path d="M152.055 28.055L148.289 14.8898C150.031 20.9797 146.484 28.623 137.043 36.8295C115.159 55.8539 69.7649 70.8101 35.8432 70.1737C16.5507 69.8114 5.06089 64.4827 2.76465 56.4541L6.52988 69.6189C8.82612 77.6478 20.316 82.9768 39.6084 83.3388C73.5301 83.9754 118.924 69.019 140.809 49.9949C150.249 41.7881 153.796 34.1448 152.055 28.055ZM133.652 41.5278C133.996 41.2454 134.151 40.8429 134.171 40.1809C134.186 39.652 134.2 39.1525 134.48 39.0526C134.717 38.9675 134.954 39.3274 134.904 39.9187C134.814 40.9714 133.98 41.5856 133.624 41.8478C132.908 42.3756 132.366 42.4428 132.015 42.0473C131.639 41.625 131.788 40.8739 132.144 40.882C132.191 40.8831 132.316 40.8858 132.674 41.3186C132.819 41.4935 133.158 41.9028 133.652 41.5278ZM151.697 28.8636L151.636 28.6516C151.615 28.3001 151.608 28.194 151.259 26.7579C150.795 24.8561 150.226 22.5453 149.353 19.1778C149.35 19.1505 149.347 19.1235 149.344 19.0965C150 21.1452 150.602 23.2103 151.249 25.2617C151.246 25.2455 151.243 25.2236 151.24 25.2074L151.3 25.4191C151.414 25.8276 151.503 26.2431 151.569 26.6651L151.509 26.4531C151.444 26.0759 151.327 25.6677 151.106 24.9496C151.02 24.6707 150.905 24.2986 150.818 24.02C150.884 24.4344 150.927 24.8551 150.947 25.2819C151.531 27.6386 151.531 27.6386 151.602 27.7518C151.626 27.6948 151.626 27.6948 151.627 27.6003L151.688 27.8122C151.706 28.1586 151.709 28.5091 151.697 28.8636ZM150.446 34.5179C149.979 35.5233 149.174 34.5233 148.654 33.0721C147.401 29.5736 147.731 25.53 148.642 25.9653C149.713 26.4774 151.226 32.6922 150.446 34.5179ZM110.593 56.5888C110.691 56.5345 110.919 56.4087 110.893 55.8323C110.956 55.8031 111.02 55.774 111.083 55.7448C111.392 56.6052 111.701 57.466 112.009 58.3264C111.954 58.3521 111.899 58.3774 111.844 58.4028C109.923 55.541 107.306 57.7003 106.964 59.5497C106.443 62.3754 108.437 66.3137 111.544 64.1058C112.207 63.6349 112.567 63.0277 112.974 61.6999C113.033 61.7115 113.112 61.7272 113.171 61.7388C112.311 66.0362 108.116 66.4004 106.482 64.0015C105.872 63.1063 105.159 61.0179 106.352 58.8669C106.744 58.1596 107.45 57.4592 108.151 57.0829C108.448 56.923 109.237 56.4991 110.294 56.6098C110.342 56.6147 110.505 56.6279 110.593 56.5888ZM15.8852 76.6202L15.8247 76.4085C16.1231 76.4414 16.2132 76.4514 16.163 75.3653C16.0896 73.8034 16.0113 72.0177 15.9365 69.5463C15.9778 69.5603 16.0191 69.5746 16.0602 69.5886C20.1923 77.8832 20.1923 77.8832 20.8643 78.1448L20.9248 78.3567C20.2436 78.1699 19.5835 77.9725 18.9452 77.7649L18.8845 77.553C19.456 77.6966 19.3418 77.3113 18.8696 76.3934C18.6852 76.0286 18.4393 75.5427 18.2551 75.1779C17.6266 74.9741 17.0189 74.7605 16.4322 74.5372C16.5105 76.5432 16.5137 76.6215 17.2197 76.9695L17.2802 77.1812C16.8013 77.0006 16.3364 76.8135 15.8852 76.6202ZM6.48399 68.7833C6.2923 68.3975 6.1241 68.0041 5.97966 67.6037L5.9189 67.392C5.9324 67.4271 5.95157 67.4738 5.9675 67.5076C5.95454 67.4126 5.9505 67.3842 5.63731 66.3402C5.52041 65.949 5.36463 65.4279 5.24853 65.0369C5.15917 64.7918 5.07871 64.5442 5.00717 64.2945C4.63216 62.9834 4.25741 61.6729 3.8824 60.3621C3.76927 59.9644 3.65615 59.5667 3.54437 59.1688C3.55247 59.1955 3.56111 59.222 3.56948 59.249C3.823 60.1186 6.05795 67.7695 6.42351 68.5713L6.48399 68.7833ZM146.566 34.7544C146.964 34.1731 147.048 33.6226 146.756 31.5102C146.602 30.4006 146.545 29.9851 146.687 29.4038C146.804 28.9275 147.124 28.4607 147.296 29.3034C147.323 29.4365 147.44 30.0998 147.076 30.1012C146.906 30.102 146.804 30.1023 146.835 30.5461C146.908 31.5867 147.178 32.6083 147.13 33.6604C147.117 33.9269 147.104 34.0508 147.065 34.2636C147.221 34.195 147.436 34.3095 148.026 35.0895C148.994 36.37 149.12 36.4632 149.374 36.0862L149.435 36.2982C149.255 36.6257 149.065 36.9551 148.864 37.2863C147.084 34.6826 146.842 35.0152 146.697 35.2139L147.364 37.5453C147.64 38.4953 147.741 38.6679 148.097 38.1797L148.157 38.3914C147.782 38.9505 147.377 39.5145 146.941 40.0831L146.88 39.8715C147.264 39.3307 147.242 39.0901 146.964 38.1017L145.544 33.1388C145.266 32.1801 145.177 32.0335 144.774 32.506L144.713 32.2943C145.149 31.7257 145.555 31.1617 145.93 30.6028L145.99 30.8145C145.664 31.3534 145.659 31.5683 145.944 32.5824L146.566 34.7544ZM6.59901 66.6585C6.73049 66.8237 6.7529 66.8388 6.81284 66.8799C6.94702 66.757 6.85251 66.2689 6.69592 65.4608C6.50342 64.4667 6.49641 64.389 6.5909 64.2713C6.90571 64.2399 7.38763 65.2599 7.31501 65.649C7.29935 65.6533 7.27856 65.6587 7.2629 65.663C7.04286 65.4619 7.01829 65.1279 6.77503 64.9427C6.74966 65.0215 6.74183 65.0453 6.89006 65.8045C7.11927 66.9811 7.0758 67.1831 7.01694 67.2797C7.10037 67.4225 7.22618 67.6385 7.86227 69.1982C8.98676 71.9551 9.14039 72.1735 9.40821 72.4413L9.46869 72.6533C9.23515 72.4397 9.01133 72.2226 8.79723 72.0021C6.90517 67.3461 6.90516 67.3461 6.73021 67.1183L7.39709 69.4493C7.69569 70.4874 7.7756 70.6805 8.05693 71.0401L8.1174 71.2518C7.79531 70.8697 7.50048 70.478 7.23374 70.0771L7.17299 69.8651C7.20782 69.9137 7.24455 69.9607 7.28666 70.0031C7.30124 69.9936 7.32068 69.9809 7.33526 69.9715C7.32041 69.8651 7.30637 69.7647 7.10631 69.063L5.68698 64.0998C5.39782 63.0933 5.32844 62.9138 5.06656 62.4999L5.00608 62.2882C5.2731 62.6891 5.56765 63.0809 5.89001 63.4629L5.95049 63.6751C5.82954 63.5417 5.82955 63.5418 5.76016 63.545C5.75557 63.623 5.75124 63.6905 5.97776 64.4864L6.59901 66.6585ZM151.029 31.0955C151.117 30.5296 150.577 28.5612 150.016 26.5932L149.549 24.9596C149.306 24.118 149.268 24.0926 149.199 24.0467C149.131 24.1126 149.127 24.1164 149.081 24.2738L149.02 24.0618C149.269 23.105 149.416 22.1711 149.461 21.2624L149.522 21.4743C149.509 21.9624 149.547 22.1679 149.831 23.1655L151.25 28.1284C151.495 28.9802 151.519 28.9977 151.581 29.0453C151.617 28.9689 151.617 28.9689 151.628 28.8395L151.689 29.0512C151.664 29.5364 151.611 30.0286 151.529 30.5278L151.469 30.3161C151.529 29.835 151.483 29.6182 151.198 28.6154L149.495 22.6636C149.45 23.0197 149.39 23.3796 149.315 23.7427L149.939 25.9242C150.667 28.4802 151.573 31.6614 151.159 32.2921C151.141 32.2937 151.117 32.2959 151.1 32.2973C150.874 32.0805 150.752 31.3402 150.827 31.1058C150.844 31.1009 150.865 31.0945 150.882 31.0896C150.911 31.109 150.951 31.1323 150.982 31.1477C150.998 31.1331 151.024 31.1158 151.029 31.0955ZM144.722 42.1691C144.963 41.9015 145.199 41.6348 145.428 41.3688C145.477 41.3091 145.569 41.1979 145.596 41.1021C145.603 40.8226 145.603 40.8226 145.391 40.0799L143.974 35.1254C143.696 34.1677 143.6 34.07 143.24 34.3802L143.179 34.1685C143.625 33.6556 144.047 33.1461 144.445 32.6404L144.505 32.8523C144.132 33.385 144.212 33.7387 144.444 34.5587L145.861 39.5129C146.098 40.3356 146.206 40.7109 146.619 40.2084L146.679 40.4201C145.181 42.3275 143.341 44.2855 141.15 46.2796L141.089 46.0679C141.593 45.5188 141.615 45.3554 141.324 44.3227L139.907 39.3682C139.618 38.3774 139.497 38.2904 138.983 38.7027L138.922 38.491C139.507 37.9591 140.066 37.43 140.6 36.9035L140.661 37.1152C140.295 37.5836 140.243 37.7788 140.525 38.7829L141.942 43.7374C142.171 44.5325 142.202 44.5452 142.317 44.5927C142.4 44.5511 142.425 44.5385 142.583 44.3894C142.857 44.1221 143.123 43.8554 143.384 43.5897C143.775 43.1799 143.775 43.1799 143.493 42.1847L142.076 37.2302C141.798 36.2725 141.701 36.1826 141.283 36.4923L141.223 36.2806C141.717 35.7779 142.188 35.2779 142.636 34.7811L142.697 34.9931C142.379 35.4577 142.338 35.6521 142.62 36.6538L144.037 41.608C144.325 42.6051 144.325 42.6051 144.722 42.1691ZM134.387 49.4549C135.178 45.2612 135.55 42.9407 135.551 42.9364C135.551 42.9239 135.508 41.7649 134.639 42.3502C134.582 42.3883 134.527 42.4293 134.473 42.4706L134.412 42.259C135.176 41.6696 135.918 41.0756 136.637 40.4776L136.698 40.6893C136.046 41.267 136.043 41.5087 136.316 42.4855L137.736 47.4486C138.018 48.412 138.14 48.5699 138.804 48.0545L138.865 48.2662C138.146 48.8645 137.404 49.4582 136.64 50.0475L136.579 49.8359C137.238 49.2937 137.294 49.0578 137.008 48.0315L135.727 43.5544C135.547 44.6284 135.172 46.8628 134.708 49.3291C134.666 49.5551 134.568 49.8521 134.566 50.0821C134.563 50.4471 134.661 51.2231 135.657 50.537L135.717 50.749C134.938 51.3329 134.138 51.9121 133.317 52.4861L133.256 52.2744C133.956 51.7514 134.018 51.5182 133.733 50.4927L132.314 45.5301C132.018 44.5223 131.866 44.441 131.15 44.9091L131.089 44.6975C131.91 44.1235 132.711 43.5441 133.49 42.9601L133.55 43.1718C132.877 43.7099 132.818 43.9439 133.101 44.9599L134.387 49.4549ZM127.896 53.8155C128.91 49.6034 129.386 47.3898 129.386 47.3868C129.387 47.3741 129.423 46.133 128.272 46.8487C128.252 46.8609 128.226 46.8779 128.207 46.8903L128.146 46.6784C129.015 46.1154 129.864 45.5466 130.694 44.9729L130.754 45.1845C130.039 45.7118 129.975 45.9443 130.257 46.9608L131.677 51.9237C131.975 52.9396 132.13 53.0214 132.861 52.55L132.921 52.7617C132.092 53.3354 131.242 53.904 130.374 54.4672L130.313 54.2556C131.098 53.7123 131.114 53.4526 130.843 52.482L129.562 48.0048C129.346 48.9808 128.839 51.2663 128.253 53.7005C128.2 53.9232 128.085 54.214 128.075 54.4427C128.059 54.8079 128.144 55.5866 129.268 54.9249L129.328 55.1368C128.447 55.6938 127.547 56.2454 126.63 56.7907L126.569 56.5788C127.354 56.0801 127.429 55.8506 127.144 54.826L125.725 49.8631C125.428 48.855 125.263 48.77 124.463 49.2138L124.402 49.0019C125.32 48.4565 126.219 47.9049 127.101 47.3479L127.161 47.5596C126.36 48.1004 126.342 48.358 126.61 49.3207L127.896 53.8155ZM118.799 52.3897L118.739 52.178C119.574 51.736 120.398 51.2889 121.21 50.8372C124.848 48.8442 124.558 52.6456 124.41 53.14C124.095 54.1924 123.282 54.8722 121.852 55.2796L122.501 57.5489C122.696 58.2168 122.837 58.6993 123.535 58.3264C123.62 58.2789 123.705 58.2316 123.79 58.1839L123.85 58.3955C122.905 58.9258 121.943 59.4496 120.967 59.9666L120.906 59.7549C120.994 59.7085 121.081 59.662 121.169 59.6153C121.872 59.2217 121.737 58.7376 121.549 58.0672L120.11 53.0333C119.908 52.3435 119.774 51.8875 119.062 52.2504C118.975 52.2968 118.887 52.3432 118.799 52.3897ZM112.813 57.2219C112.713 56.8013 112.581 56.2402 112.481 55.8196C112.448 55.68 112.405 55.4945 112.372 55.3552C114.341 54.4286 116.264 53.4748 118.134 52.4963C118.269 52.8994 118.45 53.4367 118.585 53.8395C118.63 53.9726 118.69 54.1505 118.735 54.2836C118.67 54.3177 118.605 54.3517 118.54 54.3854C118.266 53.7582 117.913 53.1883 116.886 53.698C116.56 53.8646 116.233 54.0298 115.904 54.1945L117.606 60.1464C117.804 60.8233 117.936 61.2704 118.678 60.9096C118.757 60.8697 118.836 60.8297 118.915 60.7892L118.975 61.0012C117.992 61.5025 116.994 61.9969 115.984 62.4839L115.924 62.2723C116.007 62.232 116.091 62.1915 116.175 62.1508C116.922 61.7714 116.79 61.2979 116.606 60.6421L114.904 54.6902C114.62 54.8295 114.336 54.9686 114.05 55.1066C113.498 55.3763 112.744 55.7459 113.017 57.1258C112.949 57.1579 112.881 57.19 112.813 57.2219ZM102.149 65.3372C102.748 59.9336 102.748 59.9336 101.68 60.182L101.62 59.9701C102.429 59.6534 103.235 59.3324 104.035 59.0065L104.095 59.2182C103.526 59.5486 103.25 60.0365 103.142 60.9021C102.546 66.2686 102.469 66.9582 102.151 67.7473C101.516 69.3251 100.185 69.3349 99.8865 68.9828C99.6014 68.6469 99.812 67.9844 100.638 68.054C101.303 68.1102 101.578 68.1334 101.955 66.7443C96.8923 62.1186 96.8923 62.1186 96.0926 62.2658L96.0319 62.0539C97.1045 61.6729 98.1702 61.2833 99.2288 60.8862L99.2893 61.0978C98.0819 61.6159 98.5244 62.0177 99.5944 62.9883C100.446 63.7712 101.297 64.5542 102.149 65.3372ZM90.3427 74.9087L89.6405 72.4537C92.1886 71.3481 90.8522 64.957 89.8916 64.5569C89.772 64.5072 89.648 64.4557 88.8238 64.6905L88.763 64.4789C90.9972 63.781 93.2127 63.0461 95.4015 62.2766L95.4622 62.4883C94.4757 62.8654 94.3696 63.0749 94.6504 64.0917L95.8853 68.4099C96.398 70.1751 96.459 70.2296 97.5146 69.8727L98.2169 72.3274L98.0182 72.3971C96.9042 70.3522 95.4854 70.8136 94.7227 71.0614C94.0372 71.2906 93.3496 71.5161 92.66 71.738C90.7056 72.4027 90.4315 73.7953 90.546 74.8469C90.4783 74.8674 90.4105 74.8882 90.3427 74.9087ZM83.5058 66.2716L83.4454 66.0599C84.6166 65.7292 85.7843 65.3879 86.9476 65.0367L87.0078 65.2483C86.9096 65.278 86.8113 65.3075 86.7128 65.3372C85.8477 65.6255 85.9684 66.0543 86.1679 66.7646L87.6075 71.7985C87.8143 72.5094 87.9388 72.9384 88.8192 72.7024C88.9177 72.673 89.0163 72.6433 89.1146 72.6136L89.175 72.8252C88.0117 73.1768 86.844 73.518 85.673 73.8485L85.6123 73.6368C85.7084 73.6096 85.8045 73.5826 85.9009 73.555C86.7713 73.2918 86.6363 72.8074 86.4492 72.1368L85.7697 69.7617C84.5021 70.1278 83.2296 70.482 81.9542 70.8233L82.6338 73.1986C82.8409 73.9103 82.9659 74.3399 83.8531 74.1252C83.9524 74.098 84.0518 74.0707 84.1511 74.0434L84.2119 74.2554C83.038 74.5769 81.8616 74.8885 80.6829 75.1887L80.6224 74.977C80.719 74.9522 80.8157 74.9276 80.9121 74.9031C81.789 74.6625 81.661 74.203 81.4669 73.5075L80.0271 68.4733C79.8208 67.7643 79.6963 67.3361 78.8056 67.5376C78.7093 67.5624 78.6126 67.5872 78.5159 67.6118L78.4552 67.3999C79.634 67.0996 80.8106 66.7883 81.9842 66.4662L82.0447 66.6785L81.7466 66.7597C80.8737 67.0249 81.0012 67.4784 81.1939 68.1647L81.833 70.3994C83.1084 70.0579 84.3809 69.7039 85.6485 69.3376L85.0094 67.1029C84.8018 66.3858 84.6765 65.9527 83.7942 66.1901C83.6981 66.2173 83.602 66.2443 83.5058 66.2716ZM73.3794 74.9052C75.0247 71.3249 75.8909 69.404 75.8911 69.4034C75.8987 69.3562 76.0564 68.2436 74.3762 68.6191L74.3155 68.4075C75.5094 68.1307 76.7024 67.8418 77.8939 67.5421L77.9546 67.7538C76.9314 68.0408 76.8196 68.2368 77.0999 69.2525L78.5195 74.2157C78.8205 75.2325 79.0222 75.3507 80.0611 75.1191L80.1216 75.3307C78.9301 75.6307 77.7368 75.9193 76.5432 76.1963L76.4824 75.9844C77.5167 75.7144 77.6301 75.5203 77.3483 74.4986L76.068 70.0214C75.332 71.6492 74.5933 73.2756 73.8489 74.8996C73.762 75.0894 73.5919 75.3261 73.559 75.5324C73.5055 75.8645 73.5447 76.6048 75.0571 76.3094L75.1176 76.5214C73.927 76.7881 72.7358 77.0433 71.5457 77.2862L71.4852 77.0743C72.5112 76.8354 72.6232 76.6458 72.3413 75.6242L70.922 70.6616C70.6226 69.6499 70.4207 69.5257 69.3788 69.7091L69.3183 69.4974C70.5081 69.2547 71.6993 68.9993 72.8902 68.7325L72.9507 68.9442C71.8648 69.2185 71.8232 69.4339 72.094 70.4105L73.3794 74.9052ZM62.395 73.9811C63.4977 71.6867 63.4977 71.6867 63.5398 71.5085L63.5279 71.2609L63.3921 71.0614C63.0389 70.8924 63.0389 70.8924 62.5281 70.9748L62.4677 70.7631C63.4388 70.6027 64.4121 70.434 65.387 70.2566L65.4475 70.4683C64.6505 70.6594 64.3557 71.1095 63.8729 72.0909C63.5184 72.8409 63.164 73.5901 62.8089 74.3399C66.8144 77.9083 66.8144 77.9083 67.741 77.7992L67.8018 78.0112C66.6209 78.2271 65.4424 78.4307 64.2668 78.6219L64.2064 78.4099C64.3794 78.3794 64.5606 78.3419 64.7072 78.2536L64.8786 78.0681L64.8994 77.8332C64.7455 77.5341 64.7455 77.5341 64.2884 77.1302C63.6316 76.5376 62.9755 75.9439 62.32 75.3496C61.044 78.0403 61.044 78.0403 61.0076 78.2001C61.0235 78.5625 61.104 78.8549 61.9312 78.7641L61.9917 78.9758C61.0248 79.12 60.0607 79.255 59.0998 79.3811L59.0391 79.1691C60.0326 78.9324 60.48 77.9958 60.6712 77.5956C61.0929 76.7257 61.5143 75.8559 61.935 74.9857C58.2116 71.6778 58.2116 71.6778 57.0895 71.7834L57.029 71.5717C58.2821 71.4059 59.5407 71.225 60.8035 71.0293L60.8639 71.241C59.6244 71.4831 60.2964 72.092 60.6193 72.3846C61.2106 72.9176 61.8024 73.45 62.395 73.9811ZM53.0286 72.2683L52.9682 72.0566C54.1134 71.9346 55.2649 71.7993 56.4213 71.6511L56.4818 71.8627C56.4235 71.87 56.3654 71.8773 56.3071 71.8852C55.333 72.0177 55.462 72.477 55.6578 73.1727L57.0973 78.2066C57.3841 79.178 57.593 79.3441 58.4135 79.2501C58.4716 79.2428 58.5299 79.2353 58.5882 79.228L58.6487 79.4397C57.4923 79.5881 56.3411 79.7234 55.1958 79.8452L55.1351 79.6335C55.2142 79.6251 55.293 79.6168 55.3721 79.6079C56.2758 79.491 56.1473 79.0333 55.9523 78.3411L54.5128 73.3072C54.2962 72.5634 54.1772 72.1535 53.2112 72.2486C53.1504 72.2553 53.0894 72.2615 53.0286 72.2683ZM48.5633 80.4013L48.5029 80.1897C49.4794 80.1017 49.5836 79.9351 49.3012 78.9145L47.8819 73.9514C47.583 72.9397 47.3889 72.792 46.3964 72.8242L46.3359 72.6125C47.4629 72.5442 48.5979 72.4618 49.7402 72.3649L49.8007 72.5766C48.7677 72.694 48.7307 72.8954 49.0018 73.8698L49.6003 75.963C49.7051 75.9552 49.8099 75.9471 49.9149 75.9387C51.7619 75.7994 52.6696 75.8575 53.5095 76.5775C54.2682 77.2279 54.6464 78.4861 53.9345 79.3846C53.4398 80.0091 52.3704 80.1135 51.9139 80.1581C50.7899 80.2529 49.6727 80.3341 48.5633 80.4013ZM42.4986 73.0029L42.4381 72.7912C43.5359 72.7575 44.6429 72.7092 45.7582 72.6462L45.8189 72.8579C45.7271 72.863 45.6356 72.8682 45.5441 72.873C44.7149 72.9435 44.8362 73.372 45.037 74.0818L46.4766 79.1157C46.6834 79.8284 46.8084 80.2585 47.6505 80.2383C47.742 80.2334 47.8336 80.2283 47.9254 80.2234L47.9858 80.4351C46.8705 80.4977 45.7636 80.5463 44.6658 80.5801L44.6051 80.3684L44.8764 80.3595C45.6971 80.3174 45.5554 79.8082 45.3759 79.164L44.6963 76.7884C43.4959 76.8359 42.3058 76.8661 41.1282 76.8788L41.8075 79.2542C42.0094 79.9502 42.1428 80.41 42.9616 80.4081C43.0537 80.4065 43.146 80.4049 43.2384 80.4032L43.2991 80.6149C42.2035 80.6365 41.1179 80.6433 40.0431 80.6349L39.9823 80.4232C40.0733 80.424 40.164 80.4246 40.255 80.4251C41.0564 80.4143 40.9208 79.9308 40.7334 79.2609L39.2936 74.227C39.0876 73.5175 38.9637 73.0893 38.1486 73.0596C38.0579 73.0591 37.9669 73.0585 37.8762 73.058L37.8154 72.846C38.8902 72.8547 39.9759 72.8477 41.0715 72.8261L41.1319 73.0377C41.0396 73.0396 40.9473 73.0412 40.8549 73.0431C40.0455 73.0823 40.1738 73.535 40.3676 74.2203L41.0067 76.455C42.1849 76.4423 43.3747 76.4118 44.5751 76.3645L43.936 74.1298C43.73 73.4203 43.6056 72.9921 42.77 72.9945C42.6795 72.9975 42.5891 73.0005 42.4986 73.0029ZM30.5382 72.7416L30.4777 72.5296C31.4551 72.6095 32.4575 72.6751 33.4843 72.7254C37.4121 72.9346 37.5724 75.6285 36.8464 76.2994C36.6477 76.4828 36.4174 76.5686 36.307 76.6102C38.8854 77.2628 39.0579 79.579 37.9307 80.2585C37.5543 80.4853 36.9752 80.5658 35.9944 80.5277C34.8691 80.4756 33.7724 80.4057 32.7054 80.3185L32.6446 80.1068C32.7291 80.1135 32.8136 80.1206 32.8987 80.127C33.6252 80.1686 33.4757 79.6349 33.3023 79.0166L31.8625 73.9824C31.667 73.3155 31.5258 72.8333 30.792 72.7621C30.7072 72.7551 30.6227 72.7486 30.5382 72.7416ZM26.8909 77.83C27.1437 77.1369 27.6699 75.6944 28.3065 74.0737C28.364 73.9271 28.4879 73.7427 28.4982 73.5855C28.5049 73.4827 28.5268 72.576 27.2446 72.406L27.1841 72.194C28.1064 72.3077 29.0538 72.4068 30.0263 72.4918L30.0871 72.7035C29.2636 72.6581 29.1821 72.8034 29.4639 73.8147L30.8832 78.7776C31.1829 79.7995 31.3544 79.9683 32.1932 80.0685L32.254 80.2804C31.2815 80.1956 30.3341 80.0965 29.4115 79.9829L29.3511 79.7712C30.1608 79.8433 30.2399 79.7007 29.9556 78.6807L28.675 74.2035C27.5789 77.009 27.0705 78.4553 27.0702 78.4572C27.0535 78.6807 27.091 79.4259 28.2714 79.63L28.3321 79.8417C27.4342 79.7177 26.5613 79.5795 25.7135 79.4278L25.6531 79.2161C26.422 79.3254 26.4366 79.1286 26.1658 78.1623L24.7462 73.1992C24.4624 72.2256 24.3377 72.0201 23.5466 71.8509L23.4859 71.6392C24.3336 71.7907 25.2065 71.9289 26.1045 72.0531L26.1649 72.2648C25.3879 72.1838 25.3199 72.3139 25.6053 73.335L26.8909 77.83ZM18.9336 72.3166C18.7808 71.7132 18.6277 71.11 18.4749 70.5063C19.8751 70.8975 21.3667 71.2431 22.9486 71.5404C23.1449 72.1541 23.3412 72.7677 23.5374 73.3811C23.4848 73.3714 23.4319 73.3614 23.3792 73.3515C23.1862 72.8471 22.8625 72.0031 21.9437 71.7996C21.6789 71.7442 21.4167 71.6878 21.157 71.6297L22.8595 77.5813C23.0752 78.3243 23.1838 78.6975 23.7734 78.8492C23.8393 78.863 23.9057 78.877 23.9718 78.8908L24.0323 79.1027C23.2334 78.9359 22.4591 78.7566 21.7094 78.5646L21.6489 78.3527C21.711 78.3686 21.7733 78.3845 21.836 78.4005C22.3954 78.5109 22.2577 78.0214 22.083 77.4015L20.3808 71.4497C20.1634 71.3978 19.9482 71.3449 19.7352 71.2909C19.3305 71.1905 18.7765 71.0533 19.0797 72.3574C19.0308 72.3439 18.9822 72.3304 18.9336 72.3166ZM10.1334 67.1963L10.0727 66.9841C10.9752 67.544 11.9626 68.0686 13.0339 68.5559C13.1632 68.9733 13.3357 69.5295 13.465 69.9469C13.4961 70.0474 13.5374 70.181 13.5684 70.2814C13.5277 70.2631 13.4866 70.2444 13.4459 70.2255C13.0509 69.1675 12.8738 68.8624 12.2903 68.5697C11.9256 68.3888 11.5716 68.2036 11.2282 68.0138L12.1097 71.0957C12.3848 71.2477 12.667 71.397 12.9558 71.5434C13.3238 71.7159 13.5277 71.7458 13.2574 70.7118C13.296 70.7302 13.3346 70.7485 13.3735 70.7666L14.1513 73.4864C14.1127 73.4684 14.0739 73.4503 14.0352 73.4316C13.7596 72.6398 13.6208 72.2423 13.0746 71.9583C12.7858 71.812 12.5036 71.663 12.2282 71.5107L12.9631 74.0807C13.0241 74.2926 13.1113 74.5904 13.1664 74.7281C13.3373 75.0219 13.3373 75.0219 13.5269 75.125C13.7423 75.2403 13.9618 75.3534 14.1851 75.4654C14.6894 75.7098 14.9427 75.8324 14.9411 74.5C14.9826 74.5186 15.0242 74.537 15.0658 74.5553C15.1303 75.1517 15.1957 75.7484 15.2615 76.3445C14.1902 75.8575 13.2026 75.3326 12.3003 74.7729L12.2398 74.5613C12.2809 74.5869 12.3225 74.6123 12.364 74.6377C12.7385 74.8345 12.6116 74.3877 12.4194 73.7116L10.9698 68.6429C10.7495 67.8799 10.6488 67.5316 10.2573 67.2724C10.216 67.2471 10.1744 67.2214 10.1334 67.1963ZM7.42624 65.1884L7.3655 64.9767C7.70379 65.2794 8.0618 65.5748 8.43897 65.8623C10.3354 67.3267 10.8553 70.4418 10.3173 70.5174C10.1226 70.5449 9.80537 70.3073 9.37501 69.8114L10.0241 72.0809C10.2255 72.7799 10.3586 73.2418 10.6799 73.4954C10.7198 73.5253 10.7598 73.5553 10.8003 73.5855L10.8607 73.7972C10.4115 73.4635 9.98869 73.1195 9.59315 72.7656L9.53241 72.5536C9.56805 72.5855 9.60369 72.6174 9.63987 72.6489C9.71682 72.7097 9.71682 72.7097 9.77973 72.6948C9.82319 72.6055 9.84128 72.5682 9.60612 71.7407L8.16628 66.7068C7.96757 66.0165 7.83635 65.5604 7.53315 65.2837C7.49724 65.2518 7.46161 65.2203 7.42624 65.1884ZM148.23 26.7906C147.547 28.5207 149.363 34.5336 150.111 34.3524C151.016 34.1334 149.647 27.1232 148.586 26.539C148.453 26.4655 148.333 26.55 148.23 26.7906ZM33.4959 73.1006C33.1271 73.085 32.8587 73.109 32.5987 73.1816L33.4551 76.1752C36.0427 76.8151 36.469 75.4978 35.7746 74.3431C35.5146 73.9106 34.8726 73.1741 33.4959 73.1006ZM93.2437 63.4859C92.4416 63.7569 91.6365 64.0234 90.8284 64.2845C91.5984 67.5106 92.0355 69.7736 91.1268 71.7631C92.1282 71.4489 93.1257 71.1268 94.119 70.7979C95.1901 70.4367 95.213 70.3981 94.9409 69.4202L93.2437 63.4859ZM121.439 51.2422C121.249 51.3508 121.068 51.4914 120.831 51.7117L121.758 54.9527C122.521 54.6997 123.18 54.4815 123.401 53.4137C123.587 52.5155 123.189 51.4534 122.549 51.1407C122.365 51.0508 121.976 50.9444 121.439 51.2422ZM8.61607 66.3564C8.52211 66.2894 8.45597 66.2608 8.35445 66.2435L9.28159 69.4847C9.63905 69.8751 9.94765 70.2123 9.97897 69.634C10.017 68.9218 9.28131 66.8618 8.61607 66.3564ZM149.876 21.0588C150.194 22.2994 150.51 23.5408 150.822 24.7833C150.802 24.4058 150.764 24.033 150.707 23.6652C150.433 22.7953 150.157 21.9265 149.876 21.0588ZM16.3212 71.2942C16.3488 72.2469 16.3793 73.1997 16.4141 74.1522C16.9376 74.3499 17.4778 74.5397 18.0348 74.7216C17.4606 73.5807 16.889 72.4384 16.3212 71.2942ZM4.88567 63.8703C4.95128 64.0993 5.02444 64.3263 5.10462 64.5507C4.74338 63.3277 4.3851 62.1033 4.03115 60.8778C4.09703 61.11 4.18504 61.4197 4.25119 61.6516L4.88567 63.8703ZM50.2543 76.3542C50.031 76.3729 49.8957 76.3953 49.7367 76.4398L50.6941 79.7869C53.7509 80.0061 53.0089 77.6505 52.4684 77.0435C52.2532 76.8024 51.6074 76.2525 50.2543 76.3542ZM34.5105 76.7025C34.1522 76.6844 33.7816 76.6661 33.6066 76.7052L34.5208 79.9019C37.3778 80.697 37.685 79.1529 37.0543 78.0646C36.5684 77.2268 35.7128 76.7687 34.5105 76.7025Z" fill="white"/>
<path d="M6.48481 68.7837L6.42406 68.572C6.04203 67.7332 3.59487 59.3342 3.5703 59.2496C3.56166 59.2226 3.55329 59.1959 3.54492 59.1695C3.65724 59.5671 3.76955 59.9651 3.88322 60.3628L4.27605 61.7362C4.3349 61.9422 4.41347 62.2171 4.47233 62.4231L4.86516 63.7968C4.90809 63.9463 4.96505 64.1453 5.00771 64.2949C5.07926 64.5449 5.15971 64.7925 5.24908 65.0374C5.36544 65.4283 5.52096 65.9496 5.63813 66.3406C5.90893 67.2434 5.93404 67.339 5.96508 67.4697C5.9559 67.4583 5.94376 67.4429 5.93431 67.4313C5.94808 67.4834 5.9667 67.5523 5.98047 67.6044C6.12492 68.0045 6.29312 68.3979 6.48481 68.7837ZM4.88649 63.871L4.25202 61.6523C4.18587 61.4203 4.09786 61.1107 4.03198 60.8785C4.38647 62.1037 4.74366 63.3281 5.10545 64.5511C5.02499 64.3267 4.95209 64.0997 4.88649 63.871Z" fill="black"/>
<path d="M6.79803 64.3742C6.68923 64.2727 6.67033 64.2713 6.6004 64.2664C6.48998 64.3755 6.50699 64.4862 6.69598 65.4609C6.84852 66.249 6.93276 66.6831 6.83475 66.8767C6.76482 66.8537 6.75024 66.8489 6.59905 66.6588L5.97754 64.4868C5.75129 63.6908 5.75534 63.6233 5.7602 63.5453C5.82959 63.5421 5.82959 63.5421 5.95027 63.6752L5.8898 63.4632C5.5677 63.0812 5.27315 62.6895 5.00586 62.2883L5.06661 62.5002C5.32849 62.9141 5.39788 63.0936 5.68704 64.0999L7.10636 69.063C7.33639 69.8708 7.33423 69.931 7.33153 70.0072C7.25944 69.9885 7.25944 69.9885 7.17304 69.8654L7.23352 70.0771C7.50054 70.478 7.79536 70.8701 8.11746 71.2521L8.05698 71.0401C7.77566 70.6805 7.69547 70.4878 7.39713 69.4497L6.73027 67.1183C6.909 67.3559 6.909 67.3559 8.79702 72.0024C9.01138 72.2227 9.2352 72.4398 9.46874 72.6533L9.408 72.4417C9.10291 72.1225 8.91392 71.7097 8.40823 70.5156C7.95628 69.4483 7.42926 68.4132 7.04075 67.3189C7.03805 67.3111 6.75807 65.1147 6.75753 64.9757C6.77373 64.9733 6.79506 64.9698 6.81099 64.9673C6.97838 65.1955 7.0178 65.51 7.28455 65.6715C7.42386 65.5127 7.11473 64.6882 6.79803 64.3742Z" fill="black"/>
<path d="M8.43897 65.862C8.06153 65.5744 7.70353 65.2791 7.36523 64.9764L7.42598 65.1881C7.46135 65.2199 7.49726 65.2515 7.53317 65.2831C7.84041 65.5747 7.96299 66.0007 8.16602 66.7065L9.60586 71.7401C9.84101 72.5679 9.82293 72.6052 9.77973 72.6945C9.71682 72.7091 9.71682 72.7091 9.6396 72.6486C9.6037 72.617 9.56806 72.5849 9.53242 72.5533L9.5929 72.765C9.9887 73.1192 10.4112 73.4632 10.8605 73.7969L10.8 73.5849C10.7598 73.555 10.7196 73.525 10.6796 73.4948C10.3543 73.2269 10.2298 72.7955 10.0241 72.0806L9.37475 69.8111C10.0956 70.641 10.4971 70.7447 10.5362 70.111C10.5678 69.598 10.1037 67.139 8.43897 65.862ZM9.68226 69.8821C9.55726 69.7857 9.47653 69.6974 9.28133 69.4844L8.35447 66.2432C9.33344 66.4098 10.2398 69.7263 9.87611 69.932C9.80565 69.972 9.71601 69.9066 9.68226 69.8821Z" fill="black"/>
<path d="M13.0345 68.5559C11.9632 68.0685 10.9755 67.544 10.0732 66.9843L10.1337 67.1962C10.175 67.2216 10.2163 67.247 10.2579 67.2724C10.6494 67.5315 10.7498 67.8798 10.9701 68.6428L12.42 73.7118C12.6119 74.3876 12.7388 74.8341 12.38 74.6468C12.3752 74.6443 12.3689 74.6403 12.3644 74.6376C12.3228 74.6125 12.2815 74.5868 12.2404 74.5612L12.3009 74.7729C13.2032 75.3328 14.1908 75.8574 15.2621 76.3447C15.1962 75.7486 15.1309 75.1519 15.0664 74.5555C15.0245 74.5369 14.983 74.5185 14.9414 74.5002C14.9433 75.8323 14.69 75.7097 14.1857 75.4654C13.9621 75.3536 13.7426 75.2402 13.5272 75.1249C13.447 75.0796 13.3638 75.0329 13.2939 74.9465C13.133 74.67 13.133 74.67 12.9637 74.0806L12.2288 71.5106C12.5039 71.6629 12.7861 71.8122 13.075 71.9585C13.6246 72.2515 13.7534 72.6213 14.0358 73.4318C14.0744 73.4502 14.1131 73.4683 14.1517 73.4866L13.3738 70.7665C13.3352 70.7484 13.2966 70.7303 13.258 70.7117C13.5307 71.7555 13.3158 71.7188 12.9564 71.5433C12.6675 71.3969 12.3854 71.2479 12.11 71.0956L11.2285 68.0137C11.5719 68.2035 11.9262 68.3888 12.2909 68.5696C12.8762 68.8669 13.0531 69.1717 13.4462 70.2257C13.4872 70.2444 13.528 70.263 13.569 70.2816C13.3908 69.7066 13.2127 69.1312 13.0345 68.5559Z" fill="black"/>
<path d="M16.0609 69.5884C16.0196 69.5743 15.9783 69.5603 15.9372 69.546C16.0023 71.6513 16.2088 73.7507 16.1743 75.8599C16.1648 76.4455 16.093 76.4376 15.8252 76.4082L15.8859 76.6199C16.3368 76.8132 16.802 77.0003 17.281 77.1809L17.2202 76.9693C16.5982 76.6623 16.5161 76.3305 16.4772 75.646C16.4634 75.3134 16.4459 74.8698 16.4329 74.5369C17.0196 74.7602 17.6274 74.9738 18.2556 75.1776C19.4468 77.536 19.544 77.7287 18.8852 77.5527L18.946 77.7646C19.5842 77.9723 20.2441 78.1696 20.9255 78.3564L20.8648 78.1445C20.3893 77.9593 20.1917 77.7174 19.6209 76.6226C18.386 74.2213 17.2464 71.971 16.2331 69.9345C16.1813 69.8305 16.1481 69.6648 16.0609 69.5884ZM16.4146 74.1519C16.3803 73.1994 16.349 72.2466 16.3217 71.2939C16.8898 72.4381 17.4608 73.5806 18.0353 74.7213C17.4786 74.5394 16.9384 74.3496 16.4146 74.1519Z" fill="black"/>
<path d="M22.9493 71.5407C21.3674 71.2432 19.8757 70.8976 18.4756 70.5066C18.6284 71.1101 18.7812 71.7135 18.9343 72.3169C18.9829 72.3307 19.0315 72.3442 19.0801 72.3574C18.7772 71.0534 19.3312 71.1905 19.7359 71.291C19.9489 71.345 20.1641 71.3981 20.3814 71.45L22.0834 77.4018C22.2581 78.0217 22.3961 78.5109 21.8367 78.4005C21.774 78.3849 21.7116 78.3689 21.6496 78.3527L21.71 78.5649C22.4598 78.7569 23.2341 78.9362 24.033 79.103L23.9725 78.8911C23.9061 78.8773 23.84 78.8633 23.7741 78.8492C23.1844 78.6978 23.0759 78.3247 22.8599 77.5817L21.1576 71.6298C21.4174 71.6881 21.6795 71.7445 21.9444 71.7999C22.8631 72.0035 23.1866 72.8474 23.3799 73.3518C23.4325 73.3615 23.4852 73.3715 23.5381 73.3812C23.3418 72.7681 23.1455 72.1541 22.9493 71.5407Z" fill="black"/>
<path d="M30.0268 72.4919C29.0543 72.4071 28.1069 72.3078 27.1846 72.1941L27.2451 72.4061C28.0469 72.5124 28.2343 72.6887 28.4986 73.5856C27.9287 75.0395 27.5234 76.0949 26.8914 77.8301L25.6057 73.3351C25.3203 72.314 25.3884 72.1839 26.1654 72.2649L26.1049 72.0532C25.207 71.929 24.3341 71.7908 23.4863 71.6393L23.5471 71.851C24.3381 72.0202 24.4629 72.2257 24.7466 73.1993L26.1662 78.1624C26.437 79.1287 26.4224 79.3258 25.6535 79.2162L25.714 79.4279C26.5617 79.5796 27.4346 79.7178 28.3326 79.842L28.2718 79.6301C27.3836 79.4765 27.3172 79.2605 27.0707 78.4573C27.5626 77.1027 27.983 75.9729 28.6755 74.2036L29.956 78.6808C30.2403 79.7008 30.1612 79.8434 29.3515 79.7713L29.412 79.983C30.3345 80.0966 31.2819 80.1957 32.2544 80.2808L32.1937 80.0686C31.3548 79.9684 31.1834 79.7996 30.8837 78.7777L29.4644 73.8148C29.1825 72.8035 29.264 72.6582 30.0875 72.7036L30.0268 72.4919Z" fill="black"/>
<path d="M33.4851 72.7251C32.4583 72.6746 31.4561 72.6093 30.4785 72.5294L30.5393 72.7413C30.6235 72.7483 30.7083 72.7548 30.7931 72.7618C31.5266 72.8331 31.6678 73.3153 31.8635 73.9822L33.3031 79.0163C33.4765 79.6346 33.626 80.1684 32.8995 80.1268C32.8147 80.1203 32.7302 80.1133 32.6457 80.1065L32.7062 80.3182C33.7732 80.4054 34.8699 80.4754 35.9954 80.5272C40.3201 80.6965 37.9509 77.5044 37.9199 77.4717C37.5163 77.0473 37.0495 76.7976 36.3078 76.6099C37.9364 76.0014 37.2155 73.9009 35.5257 73.1349C35.0702 72.9281 34.5486 72.7794 33.4851 72.7251ZM34.4619 76.3078C34.0118 76.2843 33.7672 76.2519 33.4559 76.175L32.5998 73.1811C32.6141 73.1771 34.0637 72.788 35.2141 73.7116C36.0313 74.3677 36.2206 75.3337 35.9274 75.8524C35.7249 76.2101 35.2867 76.3464 34.4619 76.3078ZM35.7576 80.1152C35.3418 80.092 34.9838 80.0301 34.5216 79.9016L33.6074 76.705C33.6236 76.7015 35.3618 76.4725 36.4917 77.3854C37.0551 77.8403 37.6245 78.8873 37.1799 79.5903C36.9404 79.9691 36.4617 80.1457 35.7576 80.1152Z" fill="black"/>
<path d="M45.7582 72.6461C44.6429 72.7087 43.5359 72.7573 42.4381 72.791L42.4986 73.0027C42.5891 73.0003 42.6795 72.9973 42.77 72.9941C43.6056 72.9919 43.73 73.4201 43.936 74.1296L44.5751 76.364C43.3747 76.4116 42.1849 76.4421 41.0067 76.4545L40.3676 74.2201C40.1716 73.5273 40.042 73.0694 40.8549 73.0429C40.9473 73.0411 41.0396 73.0394 41.1319 73.0375L41.0715 72.8259C39.9759 72.8475 38.8902 72.8542 37.8154 72.8459L37.8762 73.0578C37.9669 73.0583 38.0579 73.0589 38.1486 73.0594C38.9634 73.0891 39.0876 73.5173 39.2936 74.2266L40.7334 79.2607C40.9208 79.9303 41.0564 80.4141 40.255 80.4249C40.164 80.4244 40.0733 80.4238 39.9823 80.423L40.0431 80.6347C41.1179 80.6431 42.2035 80.6363 43.2991 80.6147L43.2384 80.4028C43.1461 80.4047 43.0537 80.4063 42.9617 80.4079C42.139 80.3971 42.0143 79.9668 41.8075 79.254L41.1282 76.8786C42.3059 76.866 43.496 76.8357 44.6963 76.7882L45.3756 79.1638C45.5554 79.808 45.6972 80.3172 44.8764 80.3593L44.6051 80.3682L44.6658 80.5799C45.7636 80.5461 46.8705 80.4975 47.9858 80.4349L47.9251 80.223C47.8336 80.2281 47.742 80.2332 47.6505 80.2381C46.8084 80.2583 46.6834 79.8283 46.4766 79.1155L45.037 74.0813C44.834 73.364 44.7114 72.9309 45.5441 72.8728C45.6356 72.868 45.7271 72.8629 45.8189 72.8577L45.7582 72.6461Z" fill="black"/>
<path d="M56.4213 71.6511C55.2649 71.7996 54.1137 71.9348 52.9682 72.0566L53.0289 72.2683C53.0897 72.2618 53.1504 72.2553 53.2112 72.2488C54.1772 72.1535 54.2962 72.5634 54.5128 73.3075L55.9526 78.3411C56.1473 79.0336 56.2758 79.491 55.3721 79.6081C55.2933 79.6168 55.2142 79.6252 55.1354 79.6335L55.1958 79.8455C56.3414 79.7234 57.4926 79.5882 58.6487 79.4399L58.5882 79.228C58.5302 79.2356 58.4718 79.2429 58.4135 79.2501C57.5933 79.3441 57.3841 79.1783 57.0973 78.2066L55.6578 73.173C55.4623 72.4775 55.333 72.0177 56.3071 71.8852C56.3654 71.8776 56.4235 71.8703 56.4818 71.8628L56.4213 71.6511ZM49.7402 72.3652C48.5979 72.4619 47.4629 72.5445 46.3359 72.6128L46.3964 72.8245C47.3889 72.7923 47.5833 72.9397 47.8819 73.9517L49.3012 78.9145C49.5839 79.9354 49.4794 80.102 48.5029 80.1897L48.5636 80.4014C49.6727 80.3341 50.7899 80.2529 51.9139 80.1584C55.5187 79.8055 54.1793 77.1118 53.4379 76.5176C52.6085 75.8529 51.72 75.8027 49.9149 75.939C49.8101 75.9471 49.7054 75.9552 49.6006 75.9633L49.0018 73.8701C48.731 72.8955 48.7677 72.6941 49.8007 72.5769L49.7402 72.3652ZM51.517 79.8028C51.3056 79.8185 51.0672 79.8136 50.6941 79.7871L49.737 76.4398C50.4829 76.2303 51.6301 76.3246 52.2584 76.8451C52.8945 77.3724 53.169 78.4029 52.834 79.0072C52.7681 79.1262 52.3939 79.7251 51.517 79.8028Z" fill="black"/>
<path d="M65.3873 70.2566C64.4124 70.434 63.4391 70.6027 62.4679 70.7631L62.5284 70.9748C62.7579 70.9386 62.976 70.9083 63.121 70.9318L63.3923 71.0614L63.5282 71.2612C63.5433 71.5787 63.5433 71.5787 63.354 71.9845C63.0346 72.6503 62.7152 73.3158 62.3953 73.9813C60.3115 72.1128 60.3115 72.1128 60.19 71.8949C60.1109 71.7534 60.0183 71.4065 60.8642 71.241L60.8037 71.0293C59.541 71.2253 58.2823 71.4062 57.0293 71.5717L57.0898 71.7834C58.0906 71.6894 58.6506 72.0769 59.6895 72.9837C60.4371 73.6522 61.1852 74.3202 61.9352 74.986C60.0259 78.9342 60.0259 78.9342 59.0393 79.1694L59.0998 79.3813C60.061 79.255 61.0251 79.12 61.9919 78.9761L61.9314 78.7644C61.6242 78.7982 61.1604 78.8489 61.0184 78.438C61.0062 78.1583 61.0062 78.1583 61.203 77.7028C61.5759 76.9188 61.9485 76.1345 62.3202 75.3496C63.1375 76.0907 64.05 76.7276 64.7682 77.5776L64.8994 77.8332L64.8789 78.0684C64.6626 78.3022 64.6294 78.3381 64.2066 78.4099L64.2671 78.6219C65.4426 78.4307 66.6211 78.2272 67.8018 78.0114L67.7413 77.7992C67.0188 77.8845 66.684 77.7722 65.2931 76.5446C64.4639 75.811 63.6356 75.0767 62.8092 74.3399C64.5401 70.6859 64.5401 70.6859 65.4478 70.4683L65.3873 70.2566Z" fill="black"/>
<path d="M77.8942 67.5415C76.7028 67.8412 75.5094 68.1301 74.3158 68.4069L74.3763 68.6185C75.3977 68.3904 75.6242 68.5076 75.8915 69.4031C75.0588 71.239 74.2216 73.0728 73.3798 74.9046L72.0944 70.4099C71.8236 69.4333 71.8649 69.2179 72.9508 68.9436L72.8903 68.7319C71.6994 68.9987 70.5085 69.2541 69.3184 69.4968L69.3788 69.7085C70.421 69.5251 70.6229 69.6496 70.9221 70.661L72.3417 75.6239C72.6235 76.6452 72.5115 76.8348 71.4855 77.074L71.546 77.2856C72.7361 77.0427 73.927 76.7875 75.1179 76.5208L75.0575 76.3091C73.8525 76.5443 73.7845 76.3096 73.559 75.5318C74.4001 73.697 75.2367 71.8603 76.068 70.0211L77.3486 74.4983C77.6302 75.5197 77.5171 75.7141 76.4827 75.984L76.5435 76.1957C77.7371 75.9187 78.9304 75.6301 80.1219 75.3304L80.0611 75.1185C79.0225 75.3501 78.8208 75.2319 78.5195 74.2151L77.1002 69.2519C76.8199 68.2362 76.9317 68.0402 77.955 67.7532L77.8942 67.5415Z" fill="black"/>
<path d="M86.9472 65.0366C85.7839 65.3882 84.6162 65.7292 83.445 66.0599L83.5055 66.2716C83.6016 66.2446 83.698 66.2173 83.7938 66.19C84.6802 65.9654 84.7971 66.3696 85.009 67.1029L85.6481 69.3378C84.3805 69.7039 83.108 70.0581 81.8329 70.3994L81.1936 68.165C81.0059 67.4957 80.8701 67.0121 81.7462 66.76L82.0446 66.6784L81.9838 66.4665C80.8104 66.7883 79.6336 67.0999 78.4551 67.4001L78.5158 67.6118C78.6122 67.5872 78.7089 67.5624 78.8055 67.5378C79.6962 67.3364 79.8207 67.7646 80.0267 68.4733L81.4665 73.5075C81.6606 74.203 81.7889 74.6625 80.912 74.903C80.8153 74.9279 80.7189 74.9525 80.6223 74.977L80.6827 75.189C81.8612 74.8885 83.0378 74.5772 84.2115 74.2554L84.151 74.0434C84.0514 74.0709 83.952 74.0982 83.8527 74.1252C82.9655 74.3399 82.8405 73.9103 82.6334 73.1986L81.9541 70.8235C83.2293 70.482 84.5017 70.1278 85.7696 69.7617L86.4489 72.137C86.6362 72.8074 86.7712 73.2918 85.9005 73.5553C85.8044 73.5825 85.708 73.6098 85.6122 73.6368L85.6724 73.8487C86.8436 73.518 88.0113 73.1768 89.1749 72.8255L89.1142 72.6136C89.0159 72.6435 88.9176 72.673 88.8191 72.7027C87.9386 72.9386 87.8139 72.5096 87.6071 71.7987L86.1675 66.7646C85.968 66.0545 85.8476 65.6258 86.7126 65.3371C86.8109 65.3077 86.9092 65.2783 87.0077 65.2483L86.9472 65.0366Z" fill="black"/>
<path d="M95.4011 62.277C93.2123 63.0465 90.9968 63.7814 88.7627 64.4793L88.8234 64.691C89.7163 64.4364 90.2085 64.2963 90.5703 65.6594C90.7487 66.3312 91.5895 69.7708 90.6407 71.5395C90.3046 72.1658 89.8391 72.3681 89.6402 72.4542L90.3424 74.9092C90.4102 74.8887 90.4779 74.8679 90.5457 74.8474C90.4312 73.7958 90.705 72.4034 92.6597 71.7385C93.3492 71.5165 94.0369 71.2911 94.7224 71.0619C95.4851 70.814 96.9039 70.3526 98.0178 72.3975L98.2166 72.3281L97.5143 69.8731C96.4587 70.23 96.3977 70.1755 95.8849 68.4103L94.65 64.0922C94.3692 63.0754 94.4753 62.8659 95.4619 62.4887L95.4011 62.277ZM91.1264 71.7636C92.0352 69.7743 91.5981 67.511 90.8281 64.2849C91.6362 64.0238 92.4413 63.7574 93.2434 63.4863L94.9405 69.4206C95.2205 70.4269 95.1584 70.4479 94.1187 70.7984C93.1254 71.1272 92.1278 71.4493 91.1264 71.7636Z" fill="black"/>
<path d="M104.034 59.0064C103.234 59.3322 102.429 59.6533 101.619 59.9699L101.68 60.1819C102.659 59.9543 102.69 60.4057 102.531 61.8617C102.405 63.0203 102.277 64.1788 102.148 65.337C98.0945 61.6104 98.0945 61.6104 99.2889 61.0977L99.2282 60.886C98.1695 61.2834 97.1039 61.6728 96.0312 62.0537L96.092 62.2656C96.6425 62.1644 97.0202 62.2238 97.6784 62.8353C99.1029 64.1388 100.528 65.4418 101.954 66.7442C101.589 68.0917 101.226 68.1465 100.824 68.0801C99.8127 67.9132 99.6888 68.582 99.8124 68.8644C99.9895 69.2683 100.658 69.247 101.148 68.9754C102.262 68.3576 102.436 66.9637 102.678 65.0344C103.284 59.6889 103.284 59.6889 104.095 59.218L104.034 59.0064Z" fill="black"/>
<path d="M111.083 55.7442C111.02 55.7733 110.956 55.8028 110.893 55.8317C110.912 56.3846 110.72 56.647 110.323 56.6117C107.641 56.3722 105.332 59.0909 105.748 61.999C106.319 65.9878 110.171 66.254 112.083 64.1462C112.861 63.289 113.086 62.1623 113.171 61.7382C113.112 61.7266 113.033 61.7112 112.973 61.6996C111.767 65.6403 108.627 65.1656 107.596 63.2652C105.627 59.635 108.072 56.3954 110.388 57.1203C111.141 57.356 111.651 58.116 111.843 58.4025C111.899 58.3768 111.954 58.3514 112.009 58.3261C111.865 57.9257 111.674 57.3922 111.53 56.9918C111.396 56.6176 111.217 56.1187 111.083 55.7442Z" fill="black"/>
<path d="M118.134 52.4963C116.265 53.4747 114.341 54.4283 112.372 55.3552C112.519 55.9775 112.666 56.5995 112.813 57.2218C112.881 57.19 112.95 57.1579 113.018 57.1255C112.744 55.7458 113.499 55.3762 114.05 55.1065C114.336 54.9683 114.621 54.8295 114.905 54.6902L116.607 60.642C116.79 61.2978 116.922 61.7714 116.175 62.1507C116.092 62.1912 116.008 62.232 115.924 62.2722L115.985 62.4839C116.995 61.9966 117.992 61.5022 118.975 61.0011L118.915 60.7894C118.836 60.8294 118.757 60.8696 118.678 60.9096C117.936 61.2703 117.805 60.8232 117.606 60.1463L115.904 54.1945C116.233 54.0298 116.561 53.8643 116.887 53.698C117.913 53.1882 118.266 53.7582 118.541 54.3854C118.606 54.3516 118.67 54.3176 118.735 54.2836C118.6 53.8808 118.419 53.3438 118.284 52.9407C118.239 52.8073 118.179 52.6296 118.134 52.4963Z" fill="black"/>
<path d="M121.21 50.8365C120.398 51.2882 119.574 51.7353 118.739 52.1772L118.8 52.3889C118.887 52.3425 118.975 52.296 119.062 52.2496C119.774 51.887 119.908 52.3427 120.11 53.0326L121.55 58.0665C121.737 58.7368 121.872 59.2209 121.169 59.6148C121.081 59.6615 120.994 59.7077 120.906 59.7542L120.967 59.9658C121.944 59.4488 122.905 58.925 123.851 58.3948L123.79 58.1831C123.705 58.2309 123.62 58.2781 123.535 58.3257C122.838 58.6985 122.704 58.2411 122.501 57.5481L121.852 55.2788C125.599 54.2121 124.637 51.0257 123.657 50.4609C123.012 50.0884 122.394 50.1834 121.21 50.8365ZM122.59 54.6236C122.351 54.7559 122.237 54.7934 121.758 54.9519L120.831 51.711C122.686 49.9833 123.502 52.0433 123.448 53.069C123.442 53.1813 123.368 54.1784 122.59 54.6236Z" fill="black"/>
<path d="M130.695 44.9729C129.865 45.5467 129.016 46.1152 128.147 46.6784L128.208 46.8904C128.956 46.4149 129.121 46.4846 129.387 47.3866C128.916 49.5009 128.539 51.1516 127.897 53.8155L126.611 49.3208C126.343 48.358 126.361 48.1005 127.162 47.5597L127.102 47.348C126.22 47.905 125.321 48.4566 124.403 49.0019L124.464 49.2139C125.264 48.7698 125.429 48.8551 125.726 49.8632L127.145 54.8261C127.43 55.8507 127.355 56.0802 126.571 56.5789L126.631 56.7905C127.548 56.2454 128.448 55.6938 129.329 55.1369L129.269 54.9249C128.37 55.4541 128.302 55.2197 128.076 54.4427C128.682 51.9192 129.029 50.4151 129.564 48.0046L130.844 52.4818C131.115 53.4527 131.099 53.7124 130.314 54.2556L130.375 54.4673C131.243 53.9041 132.093 53.3355 132.922 52.7618L132.861 52.5498C132.139 53.0164 131.973 52.9286 131.678 51.9237L130.258 46.9608C129.976 45.9443 130.041 45.7119 130.755 45.1846L130.695 44.9729Z" fill="black"/>
<path d="M134.421 39.0869C134.227 39.2492 134.191 39.4779 134.171 40.1804C134.138 41.3154 133.627 41.5916 133.409 41.6575C132.739 41.8602 132.285 40.3826 131.89 41.0457C131.668 41.4183 131.812 42.215 132.511 42.2963C133.12 42.367 134.142 41.5041 134.495 41.0106C135.002 40.3024 134.987 39.4568 134.753 39.162C134.651 39.0324 134.527 39.0043 134.421 39.0869ZM136.638 40.4771C135.919 41.0754 135.177 41.6694 134.413 42.2587L134.473 42.4704C135.135 41.9701 135.285 42.0355 135.551 42.9361C135.19 45.0812 134.898 46.7554 134.387 49.4544L133.102 44.9597C132.819 43.9435 132.877 43.7096 133.551 43.1716L133.49 42.9599C132.711 43.5439 131.911 44.123 131.09 44.697L131.151 44.9087C131.866 44.4408 132.019 44.522 132.314 45.5296L133.734 50.4925C134.019 51.5179 133.957 51.7509 133.257 52.2742L133.318 52.4858C134.138 51.9118 134.939 51.3325 135.718 50.7485L135.657 50.5368C134.859 51.087 134.791 50.854 134.567 50.0819C135.001 47.7727 135.271 46.2821 135.728 43.5541L137.008 48.0313C137.294 49.0575 137.239 49.2935 136.579 49.8356L136.64 50.0473C137.404 49.4579 138.146 48.8642 138.865 48.2659L138.805 48.0543C138.141 48.5697 138.018 48.4117 137.736 47.4484L136.317 42.4853C136.044 41.5084 136.047 41.2665 136.699 40.689L136.638 40.4771Z" fill="black"/>
<path d="M144.444 32.6398C144.046 33.1458 143.625 33.655 143.179 34.1677L143.239 34.3796C143.602 34.0783 143.698 34.1758 143.974 35.1251L145.39 40.0793C145.502 40.4713 145.581 40.7559 145.601 40.8704C145.594 41.1668 145.594 41.1668 145.427 41.3682C145.199 41.6342 144.963 41.9009 144.721 42.1685C144.511 42.3939 144.474 42.409 144.375 42.4495C144.302 42.4009 144.257 42.3718 144.036 41.6074L142.619 36.6532C142.351 35.7012 142.362 35.4685 142.696 34.9925L142.636 34.7806C142.187 35.2776 141.716 35.7773 141.222 36.2798L141.283 36.4917C141.701 36.1823 141.797 36.272 142.076 37.2296L143.493 42.1841C143.776 43.1834 143.776 43.1834 143.383 43.5891C143.123 43.8551 142.856 44.1216 142.583 44.3888C142.239 44.7128 142.226 44.7255 141.941 43.7368L140.524 38.7823C140.256 37.829 140.276 37.5952 140.66 37.1146L140.6 36.9029C140.065 37.4294 139.506 37.9586 138.922 38.4904L138.982 38.7021C139.505 38.2944 139.617 38.3752 139.907 39.3676L141.324 44.3222C141.597 45.2955 141.606 45.5328 141.089 46.0674L141.149 46.2793C143.34 44.2849 145.18 42.327 146.679 40.4195L146.618 40.2078C146.205 40.7105 146.104 40.3598 145.861 39.5126L144.444 34.5581C144.225 33.7865 144.115 33.399 144.504 32.8518L144.444 32.6398Z" fill="black"/>
<path d="M146.841 29.0087C145.822 30.8794 147.856 32.8968 146.566 34.7543L145.944 32.5822C145.659 31.5692 145.665 31.3381 145.99 30.8144L145.93 30.6024C145.554 31.1616 145.149 31.7256 144.713 32.2942L144.774 32.5058C145.176 32.0333 145.266 32.18 145.544 33.1384L146.963 38.1016C147.242 39.0897 147.263 39.3306 146.88 39.8711L146.941 40.083C147.376 39.5144 147.782 38.9504 148.157 38.3913L148.097 38.1796C147.752 38.6364 147.657 38.5535 147.364 37.5451L146.697 35.2138C146.844 35.0186 147.09 34.6922 148.864 37.2862C149.065 36.9549 149.255 36.6253 149.434 36.2981L149.374 36.0861C149.12 36.463 148.994 36.3699 148.026 35.0891C147.436 34.3091 147.221 34.1949 147.065 34.2632C147.089 34.1317 147.139 33.8579 147.133 33.3687C147.12 32.4467 146.929 31.5441 146.842 30.63C146.792 30.1062 146.9 30.104 147.038 30.1011C147.215 30.0973 147.343 30.0946 147.327 29.5657C147.317 29.2717 147.18 28.7603 146.992 28.8399C146.933 28.8651 146.872 28.9563 146.841 29.0087Z" fill="black"/>
<path d="M148.132 26.3121C147.066 29.0074 148.876 35.3472 150.104 34.9198C151.412 34.4649 150.14 26.682 148.641 25.9652C148.442 25.8702 148.271 25.9868 148.132 26.3121ZM150.325 34.1072C149.965 34.882 149.412 33.6374 149.114 32.8266C147.769 29.1626 147.903 26.1631 148.586 26.5389C149.236 26.8969 150.925 32.7019 150.325 34.1072Z" fill="black"/>
<path d="M149.462 21.2625C149.416 22.1712 149.269 23.1051 149.021 24.062L149.081 24.2736C149.136 24.0944 149.145 24.089 149.209 24.0468C149.276 24.1119 149.317 24.1513 149.549 24.9597L150.017 26.5933C150.466 28.1709 151.219 30.8114 150.997 31.1451C150.942 31.1299 150.893 31.0932 150.832 31.0997C150.751 31.3243 150.872 32.0773 151.1 32.2974C151.118 32.296 151.142 32.2939 151.159 32.2922C151.573 31.6615 150.667 28.4803 149.94 25.9243L149.316 23.7428C149.391 23.3794 149.451 23.0198 149.496 22.6634L151.198 28.6153C151.462 29.5421 151.535 29.8308 151.469 30.3159L151.529 30.5276C151.612 30.0287 151.665 29.5365 151.689 29.0513L151.629 28.8394C151.618 28.9655 151.618 28.9655 151.588 29.0397C151.519 29.0016 151.498 28.99 151.251 28.1285L149.832 23.1653C149.548 22.1699 149.508 21.9488 149.522 21.4744L149.462 21.2625Z" fill="black"/>
<path d="M149.344 19.0965C149.347 19.1235 149.35 19.1505 149.353 19.1775C151.584 27.8041 151.621 28.3981 151.636 28.6516L151.696 28.8633C151.709 28.5091 151.706 28.1583 151.688 27.8122L151.627 27.6003C151.626 27.6381 151.624 27.6886 151.621 27.7261C151.607 27.7207 151.588 27.7137 151.575 27.708C151.534 27.6111 151.502 27.5344 151.306 26.7347C151.198 26.2987 151.055 25.7177 150.946 25.2819C150.926 24.8551 150.883 24.4344 150.817 24.0197C151.298 25.5646 151.427 25.9798 151.508 26.4531L151.569 26.6648C151.503 26.2428 151.413 25.8275 151.3 25.4191L151.239 25.2071C151.244 25.2225 151.249 25.243 151.253 25.2581C151.145 25.0044 151.089 24.7344 151.01 24.4711C150.782 23.7122 150.178 21.6957 149.344 19.0965ZM150.821 24.7832C150.51 23.5408 150.195 22.2991 149.875 21.0588C150.156 21.9265 150.433 22.7951 150.707 23.6652C150.763 24.0329 150.801 24.4058 150.821 24.7832Z" fill="black"/>
</g>
<mask id="mask1_338_1413" style="mask-type:luminance" maskUnits="userSpaceOnUse" x="1" y="0" width="153" height="71">
<path d="M13.1115 34.5036C3.53558 42.8283 -0.0617225 50.5815 1.70534 56.7596L5.63392 70.4966C3.86685 64.3185 7.46416 56.565 17.0403 48.2405C39.2424 28.9405 85.3122 13.7613 119.726 14.4071C139.294 14.7745 150.946 20.1807 153.276 28.3249L149.347 14.5882C147.017 6.44381 135.366 1.03761 115.797 0.670418C115.09 0.657188 114.377 0.650711 113.66 0.650711C79.4988 0.650711 34.857 15.6007 13.1115 34.5036Z" fill="white"/>
</mask>
<g mask="url(#mask1_338_1413)">
<path d="M153.113 27.7536L149.348 14.5885C147.018 6.44408 135.367 1.03786 115.798 0.670677C81.3843 0.0248718 35.3146 15.2041 13.1125 34.5041C3.53631 42.8283 -0.0607283 50.5818 1.70634 56.7599L2.49201 59.5073C2.60972 59.9196 2.76686 60.469 2.88484 60.8813C3.12054 61.7053 3.4348 62.8044 3.6705 63.6284L4.45643 66.3758L4.84927 67.7495C5.03583 68.402 5.28474 69.2725 5.47131 69.9253C3.70451 63.7472 7.30182 55.9937 16.8777 47.6692C39.0798 28.3692 85.1496 13.19 119.563 13.8358C139.132 14.2032 150.784 19.6092 153.113 27.7536ZM10.1691 39.2602C10.4353 38.9694 10.543 38.5631 10.5292 37.9016C10.5182 37.3551 10.5093 36.9234 10.7215 36.7809C10.9032 36.6589 11.1294 36.9404 11.1483 37.4864C11.194 38.8028 9.71065 40.5027 9.03217 39.9114C8.63826 39.5677 8.63394 38.6619 8.93498 38.6325C8.97818 38.6281 9.06807 38.6195 9.38396 39.0631C9.50653 39.2356 9.79407 39.6398 10.1691 39.2602ZM81.8981 15.2902L81.8374 15.0783C82.4551 14.8304 82.6209 14.7637 82.8334 13.4313C83.3671 10.1307 83.3671 10.1307 83.9551 6.39386C84.028 6.37928 84.1009 6.36443 84.1738 6.35012C85.8964 8.48302 87.4555 10.7479 89.3457 12.745C89.67 13.0871 89.9497 13.3827 90.7494 13.2969L90.8098 13.5088C89.7083 13.7013 88.6049 13.9049 87.5001 14.1187L87.4393 13.9071C88.5195 13.6562 88.2358 13.2162 87.6834 12.5188C87.4364 12.2113 87.107 11.8012 86.8594 11.4936C85.7768 11.7026 84.6928 11.9218 83.6082 12.1505C83.2041 14.6295 83.1965 14.6768 84.483 14.5037L84.5435 14.7154C83.6619 14.9006 82.7799 15.0923 81.8981 15.2902ZM46.8295 26.6275L46.7691 26.4156C47.3258 26.0592 47.4753 25.9636 47.6384 24.537C47.9038 22.2108 48.3458 18.4555 48.5215 16.9922C48.5863 16.966 48.6509 16.9398 48.7159 16.9139C53.5017 22.5607 53.5017 22.5607 53.6896 22.7443C54.0395 23.0866 54.3217 23.295 55.0252 23.0834L55.0857 23.295C54.0425 23.6876 53.006 24.088 51.9779 24.4957L51.9174 24.2837C52.9796 23.8164 52.601 23.3628 52.1215 22.7883C51.8842 22.5075 51.5678 22.133 51.3305 21.8522C50.3196 22.2523 49.3161 22.6595 48.3212 23.0737C48.0048 25.7338 47.9986 25.7846 49.18 25.3942L49.2408 25.6061C48.4314 25.942 47.6273 26.2824 46.8295 26.6275ZM35.6521 32.1757C32.1884 33.9047 30.1667 29.8212 31.2138 26.6863C32.4738 22.9135 36.2833 22.693 37.6408 25.4846C38.8034 27.8756 37.8741 31.0024 35.6521 32.1757ZM2.26765 54.8098C2.27143 54.7269 2.27737 54.6016 2.14399 54.0428C2.14885 54.0117 2.15371 53.9812 2.15884 53.9504C2.41668 54.8095 2.67452 55.6689 2.93263 56.5283C2.92804 56.555 2.92344 56.5817 2.91912 56.6085C2.6467 55.8538 2.31543 55.028 2.17099 55.343C1.88885 55.9589 3.58113 62.6821 4.09734 62.9963C4.40621 62.8651 4.06253 60.8635 3.89729 59.9015C4.09843 60.0508 4.50882 63.3149 4.25719 63.7812C4.23451 63.7801 4.20426 63.7788 4.18185 63.7774C3.36244 62.8233 1.57541 54.8778 2.16911 54.8287C2.19854 54.826 2.23983 54.8284 2.26656 54.8157C2.26683 54.8139 2.26738 54.8117 2.26765 54.8098ZM59.8189 16.9663C61.0292 16.5494 61.4669 16.0734 61.6729 14.0761C61.7779 13.0574 61.8305 12.5463 62.5887 12.0914C63.8004 11.3646 64.4896 11.9807 64.1905 12.5655C64.1729 12.6 64.1441 12.6432 64.1219 12.6748C63.6681 13.3206 62.7496 12.3557 62.3802 13.1181C62.3441 13.1924 62.269 13.3476 62.1904 14.2173C62.08 15.4411 61.7844 15.997 61.5098 16.3793C61.4272 16.4941 61.2871 16.6283 61.2409 16.6725C61.7601 16.6266 62.4577 17.0656 63.3457 17.7393C65.2818 19.208 65.6773 19.377 66.6012 19.131L66.662 19.3427C65.9516 19.5614 65.2432 19.7836 64.5363 20.0098C61.0252 17.0743 60.4541 17.2611 59.9503 17.4258L60.6169 19.7569C60.9161 20.7674 61.1153 20.8724 62.1405 20.5606L62.201 20.7726C61.0281 21.1635 59.8615 21.5644 58.7025 21.9748L58.6417 21.7629C59.652 21.3749 59.7525 21.1789 59.469 20.1516L58.0496 15.1884C57.7486 14.1724 57.5507 14.069 56.5353 14.3976L56.4748 14.186C57.6339 13.7756 58.8005 13.3746 59.9733 12.9837L60.034 13.1956C59.0248 13.5623 58.9155 13.7715 59.1976 14.794L59.8189 16.9663ZM26.3783 32.3793C27.3178 31.7888 27.6397 31.2378 27.695 29.1389C27.7239 28.0438 27.7371 27.5441 28.3322 26.9547C29.1886 26.1061 29.8641 26.4774 29.6808 27.1723C29.4777 27.9418 28.4461 27.3273 28.215 28.0503C27.8643 29.1475 28.2412 30.3447 27.7517 31.4227C27.7342 31.4611 27.7109 31.5124 27.6934 31.5504C27.6324 31.6819 27.5319 31.8331 27.4941 31.8901C27.9051 31.7751 28.4923 32.1385 29.2472 32.7195C30.9724 34.0465 31.2629 34.0905 31.9786 33.7244L32.0391 33.936C31.4651 34.2611 30.8973 34.5881 30.3358 34.9177C27.3346 32.3401 26.9153 32.5937 26.5098 32.8388L27.1764 35.1701C27.4734 36.1783 27.638 36.2614 28.4361 35.806L28.4969 36.0179C27.584 36.5749 26.6896 37.1381 25.814 37.7069L25.7533 37.4953C26.5146 36.9674 26.5802 36.7525 26.2941 35.7258L24.8747 30.7629C24.5966 29.8155 24.4503 29.6435 23.6471 30.13L23.5863 29.9181C24.4619 29.3495 25.3567 28.7863 26.2692 28.229L26.33 28.4407C25.5475 28.9513 25.4725 29.1824 25.757 30.207L26.3783 32.3793ZM151.042 20.8697C150.08 17.1464 149.946 16.7773 149.815 16.4201L149.755 16.2084C149.881 16.5278 149.993 16.8518 150.089 17.1804L150.149 17.3923C150.145 17.3785 150.14 17.3605 150.136 17.347C150.178 17.5794 150.252 17.804 150.314 18.0316C151.632 22.8663 151.607 23.0407 151.593 23.1347C151.426 23.0272 151.095 22.0032 151.058 21.7361C151.114 21.7596 151.118 21.7615 151.273 22.1649C151.309 22.2594 151.341 22.356 151.391 22.4446C151.403 22.3822 151.407 22.359 151.291 21.8595C149.127 15.0726 148.821 14.5045 148.721 14.3177L148.661 14.106C148.912 14.4905 149.139 14.8836 149.34 15.2845L149.401 15.4962C149.384 15.4657 149.361 15.4252 149.341 15.396C149.301 15.4589 149.301 15.4589 149.876 17.2228C150.312 18.563 150.597 19.4507 151.042 20.8697ZM149.039 21.289L148.337 18.834C148.379 18.8565 148.444 18.8702 148.492 18.8678C148.767 18.4671 147.585 12.8015 146.667 11.8705L146.606 11.6589C147.342 12.3619 147.976 13.1028 148.508 13.8779L148.568 14.0898C148.491 13.9845 148.491 13.9845 148.42 13.937C148.395 14.0294 148.388 14.0572 148.625 14.8885L149.859 19.2066C150.361 20.9556 150.383 21.0182 150.664 21.4391L151.366 23.8941C151.349 23.8696 151.332 23.845 151.315 23.8207C150.596 21.5399 150.259 21.011 149.975 20.6648C149.782 20.4337 149.579 20.2061 149.367 19.982C148.98 19.5922 148.93 19.8503 148.929 20.1186C148.927 20.4313 148.989 20.8463 149.109 21.3517C149.086 21.3306 149.063 21.3098 149.039 21.289ZM144.735 10.2755L144.674 10.0638C145.137 10.3964 145.574 10.7396 145.983 11.0932L146.044 11.3049C146.01 11.2758 145.976 11.2469 145.942 11.218C145.802 11.1175 145.738 11.1702 145.764 11.3622C145.786 11.5174 145.915 11.9707 145.958 12.1195L147.397 17.1534C147.596 17.844 147.727 18.3 148.049 18.5832C148.083 18.6121 148.116 18.6413 148.15 18.6702L148.211 18.8818C147.801 18.5284 147.365 18.1853 146.902 17.8524L146.842 17.6407C146.879 17.668 146.917 17.6955 146.955 17.7228C147.042 17.7803 147.042 17.7803 147.116 17.7733C147.179 17.6766 147.2 17.6439 146.963 16.8121L146.284 14.4368C145.8 14.0672 145.284 13.71 144.736 13.3657L145.416 15.7413C145.614 16.4325 145.746 16.8893 146.124 17.1482L146.249 17.2303L146.309 17.4423C145.822 17.1175 145.309 16.8037 144.769 16.5011L144.708 16.2892C144.752 16.314 144.796 16.3391 144.84 16.3639C145.226 16.5589 145.106 16.1339 144.906 15.43L143.466 10.3961C143.26 9.6804 143.136 9.24843 142.734 8.99869C142.69 8.97385 142.646 8.94902 142.601 8.9239L142.541 8.71223C143.081 9.01489 143.595 9.32862 144.082 9.65341L144.142 9.86535C144.101 9.83781 144.06 9.81027 144.018 9.783C143.665 9.58213 143.783 10.0111 143.92 10.5076C143.938 10.5743 143.957 10.6408 143.976 10.7072L144.615 12.9419C145.163 13.2861 145.678 13.6433 146.163 14.0126L145.524 11.7782C145.323 11.0787 145.19 10.6165 144.849 10.3575C144.811 10.3303 144.773 10.3027 144.735 10.2755ZM140.841 13.0093C141.323 10.5757 141.511 9.26733 141.511 9.26463C141.51 9.25491 141.455 8.31427 140.593 7.90686L140.533 7.69519C141.141 7.97382 141.723 8.26432 142.277 8.56671L142.338 8.77838C141.838 8.54134 141.849 8.72466 142.12 9.68203L143.539 14.6449C143.816 15.6012 143.924 15.8353 144.445 16.1436L144.505 16.3553C143.951 16.0532 143.369 15.7627 142.76 15.4838L142.7 15.2721C143.222 15.4881 143.255 15.3774 142.968 14.3598L141.688 9.88263C141.598 10.448 141.389 11.7723 141.107 13.1983C141.081 13.3298 141.013 13.5026 141.02 13.6365C141.043 14.0391 141.225 14.5928 141.966 14.9473L142.026 15.159C141.398 14.8903 140.744 14.6339 140.062 14.3898L140.002 14.1781C140.605 14.3685 140.604 14.1951 140.331 13.2251L138.911 8.26217C138.629 7.29156 138.511 7.06019 137.895 6.81288L137.835 6.60094C138.516 6.84528 139.17 7.10176 139.799 7.37013L139.859 7.58207C139.314 7.37364 139.271 7.50431 139.555 8.5146L140.841 13.0093ZM133.849 8.24192C134.394 6.49942 134.394 6.49376 134.403 6.35282L134.371 6.12414L134.262 5.89951C134.002 5.6306 134.002 5.6306 133.673 5.54448L133.612 5.33281C134.255 5.49291 134.88 5.66193 135.486 5.83958L135.547 6.05125C135.053 5.9473 134.91 6.24158 134.68 6.98918C134.513 7.55939 134.344 8.12879 134.172 8.69711C137.26 13.2542 137.26 13.2542 137.769 13.4505L137.83 13.6624C137.098 13.4459 136.34 13.2421 135.556 13.0515L135.495 12.8398C135.689 12.8827 135.745 12.8733 135.821 12.8541L135.919 12.7399L135.905 12.5315C135.777 12.2194 135.777 12.2194 135.434 11.7002C134.933 10.9553 134.43 10.2123 133.925 9.4709C133.242 11.6402 133.242 11.6402 133.237 11.7083C133.286 12.1184 133.404 12.3395 133.943 12.4864L134.004 12.6981C133.327 12.5544 132.633 12.4197 131.921 12.2942L131.86 12.0825C132.591 12.117 132.849 11.3481 132.946 11.0587C133.176 10.3816 133.404 9.70336 133.625 9.02326C130.969 5.24533 130.753 4.93674 129.876 4.73884L129.816 4.52717C130.738 4.69132 131.631 4.87141 132.493 5.06687L132.554 5.27854C131.708 5.14409 132.23 5.89411 132.481 6.25454C132.939 6.91574 133.395 7.57775 133.849 8.24192ZM126.762 4.25935L126.702 4.04767C127.615 4.16727 128.503 4.30119 129.366 4.4486L129.426 4.66027C129.381 4.65271 129.335 4.64488 129.289 4.63705C128.563 4.53175 128.685 4.96535 128.888 5.68325L130.328 10.7172C130.607 11.674 130.787 11.8903 131.396 12.0023C131.441 12.0099 131.487 12.0177 131.533 12.0255L131.593 12.2375C130.73 12.0898 129.842 11.9561 128.929 11.8363L128.869 11.6246C128.931 11.633 128.994 11.6411 129.056 11.6494C129.77 11.7277 129.649 11.2974 129.447 10.5843L128.008 5.55042C127.792 4.80687 127.674 4.39731 126.914 4.27932C126.863 4.27257 126.813 4.26582 126.762 4.25935ZM123.323 11.2992L123.263 11.0876C124.173 11.1167 124.199 10.9286 123.928 9.9558L122.508 4.99289C122.221 4.01041 122.083 3.81035 121.156 3.72234L121.095 3.51067C122.11 3.57465 123.099 3.65376 124.064 3.74744L124.124 3.95939C123.284 3.90512 123.201 4.05091 123.485 5.07065L124.084 7.16386C124.174 7.17169 124.264 7.17952 124.354 7.18735C129.035 7.62743 128.138 10.9696 127.773 11.2787C127.364 11.6243 126.604 11.5614 126.238 11.5312C125.29 11.4396 124.319 11.3624 123.323 11.2992ZM117.509 3.55927L117.448 3.3476C118.514 3.37621 119.556 3.42022 120.573 3.47881L120.633 3.69075C120.55 3.68589 120.466 3.68103 120.383 3.67644C119.618 3.6597 119.739 4.08979 119.941 4.80256L121.381 9.83646C121.593 10.57 121.71 10.9745 122.489 11.042C122.573 11.0465 122.656 11.0511 122.74 11.056L122.801 11.2677C121.783 11.2091 120.742 11.1651 119.675 11.1364L119.615 10.9245C119.705 10.9269 119.795 10.9296 119.885 10.9321C120.668 10.941 120.527 10.4345 120.348 9.79299L119.668 7.41765C119.025 7.39362 118.373 7.37553 117.712 7.36338C117.2 7.35366 116.685 7.34745 116.168 7.34475L116.848 9.72037C117.053 10.4296 117.178 10.8578 118.009 10.8932C118.098 10.8943 118.187 10.8953 118.275 10.8967L118.336 11.1086C117.254 11.0927 116.16 11.0922 115.057 11.1067L114.996 10.8951C115.087 10.8937 115.177 10.8927 115.268 10.8916C116.085 10.8684 115.964 10.4361 115.763 9.71983L114.323 4.68592C114.111 3.94885 113.993 3.54279 113.161 3.5266C113.071 3.52767 112.98 3.52849 112.89 3.52984L112.829 3.31817C113.933 3.30332 115.026 3.30386 116.108 3.31979L116.169 3.53146C116.08 3.53011 115.991 3.52902 115.903 3.52795C115.086 3.5436 115.214 3.99826 115.408 4.68646L116.047 6.92087C116.564 6.92357 117.079 6.92951 117.591 6.93923C118.252 6.95165 118.904 6.96974 119.547 6.9935L118.908 4.75909C118.701 4.04659 118.577 3.61678 117.779 3.56709C117.689 3.56439 117.599 3.56169 117.509 3.55927ZM104.82 3.88972L104.759 3.67805C105.915 3.5922 107.062 3.52093 108.201 3.46477C112.382 3.27821 112.501 6.03261 111.87 6.75132C111.64 7.01347 111.327 7.14388 111.194 7.1995C113.812 7.6628 114.041 9.99495 112.919 10.7695C112.575 11.0069 112.093 11.1678 110.751 11.238C109.506 11.2963 108.251 11.373 106.987 11.4666L106.926 11.255C107.026 11.2474 107.126 11.2401 107.226 11.2331C108.068 11.1564 107.932 10.675 107.746 10.0084L106.306 4.97453C106.102 4.27986 105.967 3.82088 105.119 3.86786C105.02 3.87488 104.92 3.88216 104.82 3.88972ZM99.805 10.2269C100.171 9.48008 100.537 8.7333 100.903 7.98678C101.122 7.54184 101.413 6.94868 101.631 6.50401C101.823 6.11226 102.203 5.62898 102.272 5.19809C102.279 5.153 102.431 4.09167 100.769 4.24584L100.709 4.03417C101.884 3.91511 103.052 3.80981 104.213 3.71937L104.273 3.9313C103.236 4.04254 103.192 4.27608 103.456 5.22724L104.876 10.1904C105.158 11.1489 105.319 11.3495 106.38 11.2966L106.44 11.5082C105.28 11.5987 104.111 11.7037 102.936 11.823L102.876 11.6111C103.909 11.478 104.012 11.3182 103.729 10.2933L102.449 5.81609C101.966 6.80235 101.484 7.78834 101.001 8.7746C100.662 9.46766 100.115 10.0592 99.9843 10.8538C99.9327 11.1672 99.9743 11.883 101.47 11.7601L101.53 11.9718C100.357 12.1017 99.1776 12.2453 97.9934 12.4024L97.9326 12.1905C98.998 12.019 99.0418 11.7968 98.775 10.8365L97.3554 5.87332C97.0716 4.90893 96.9086 4.71265 95.8262 4.82523L95.7657 4.61356C96.9502 4.45643 98.1297 4.3128 99.3031 4.1832L99.3636 4.39487C98.3476 4.53608 98.2372 4.71103 98.5193 5.73185L99.805 10.2269ZM88.6408 7.63013C88.4982 7.01509 88.3557 6.40007 88.2128 5.78503C90.4894 5.38194 92.7567 5.02475 95.0076 4.71589C95.1467 5.12518 95.3319 5.67056 95.4712 6.07986C95.5171 6.21513 95.5784 6.39574 95.6245 6.53128C95.5465 6.54181 95.4682 6.55261 95.3902 6.56341C95.1736 6.07473 94.8119 5.2564 93.4954 5.43649C93.1037 5.49399 92.7116 5.55312 92.3193 5.61359L94.0216 11.5655C94.2273 12.2653 94.3513 12.6875 95.2322 12.5709C95.3294 12.5563 95.4264 12.542 95.5233 12.5277L95.584 12.7394C94.409 12.9122 93.2305 13.0979 92.0488 13.2963L91.9886 13.0844C92.0893 13.0677 92.1903 13.0507 92.291 13.0339C93.1579 12.8741 93.0189 12.3784 92.8431 11.7512L91.1409 5.79935C90.8077 5.8528 90.4737 5.90761 90.1397 5.9635C89.5339 6.06744 88.6178 6.2243 88.8775 7.58828C88.7987 7.60205 88.7196 7.61609 88.6408 7.63013ZM72.0271 9.60373L71.9667 9.39206C74.1163 8.81969 76.274 8.28242 78.4336 7.78321C78.5722 8.19062 78.7571 8.73357 78.8953 9.14098C78.9288 9.23898 78.9734 9.36965 79.0068 9.46766C78.9275 9.48575 78.8481 9.50411 78.769 9.52274C78.2671 8.5659 77.9625 8.34667 76.7767 8.62692C76.0097 8.81159 75.2432 9.00112 74.4775 9.19524L75.3588 12.2771C75.9727 12.1216 76.5872 11.9691 77.2017 11.8195C77.8413 11.6575 78.445 11.5044 78.1877 10.3656C78.2641 10.3475 78.3402 10.3297 78.4164 10.3116L79.1942 13.0318L78.9655 13.0855C78.6375 12.3649 78.4569 11.968 77.3205 12.2345C76.7057 12.3841 76.0915 12.5366 75.4776 12.6921L76.2125 15.2621C76.338 15.6981 76.3828 15.8032 76.4417 15.8858C76.7379 16.0637 76.7379 16.0637 77.1461 15.9641C77.621 15.8456 78.0962 15.7287 78.5716 15.6136C79.624 15.3553 80.1524 15.2257 80.579 13.5113C80.6613 13.4924 80.7439 13.4735 80.8263 13.4548C80.7712 14.1606 80.7164 14.8663 80.661 15.5721C78.5017 16.0713 76.3439 16.6083 74.194 17.1809L74.1336 16.9692C74.2345 16.9422 74.3358 16.9152 74.4368 16.8885C75.3237 16.6261 75.1976 16.1763 75.0064 15.4954L73.5566 10.4267C73.336 9.67609 73.2253 9.29946 72.3303 9.52354C72.2294 9.55027 72.1284 9.577 72.0271 9.60373ZM64.8692 11.6508L64.8088 11.4391C65.8191 11.1302 66.8329 10.8287 67.8493 10.5352C71.9588 9.3764 72.1656 12.397 71.5811 13.4006C71.0827 14.2564 70.0854 14.7116 68.3472 14.8766L68.996 17.1461C69.2125 17.8788 69.3756 18.2822 70.2142 18.0551C70.3176 18.0252 70.4212 17.9955 70.5249 17.966L70.5854 18.1777C69.3985 18.5173 68.2149 18.8673 67.0364 19.2277L66.9757 19.016C67.0785 18.9847 67.1814 18.9531 67.2845 18.9221C68.1442 18.6429 68.0092 18.1607 67.8223 17.4936L66.3828 12.4597C66.1725 11.7415 66.0456 11.3079 65.1778 11.5568C65.075 11.5881 64.9721 11.6195 64.8692 11.6508ZM40.2143 28.7914C41.2448 28.2261 40.5261 25.6717 40.1401 24.2994L39.673 22.6657C39.3728 21.6503 39.1897 21.559 38.2731 21.9699L38.2123 21.758C40.1573 20.819 42.149 19.9059 44.181 19.0214L44.2414 19.2331C43.2641 19.6921 43.2295 19.9432 43.4984 20.9116L44.9177 25.8748C45.1993 26.8311 45.3538 26.9984 46.3479 26.5983L46.4083 26.81C45.3238 27.2822 44.2506 27.7628 43.1896 28.2506L43.1291 28.039C44.0967 27.5611 44.1278 27.3278 43.8562 26.3499L42.1539 20.3978C41.3839 20.7458 40.6201 21.0976 39.8631 21.4535L40.487 23.635C40.9476 25.2789 41.3909 27.1046 41.1833 28.1769C40.903 29.6243 39.7737 30.1767 39.2688 29.9259C38.7774 29.6819 38.9262 28.9272 39.3714 28.7952C39.6519 28.7121 39.9341 28.931 40.2143 28.7914ZM21.9961 39.8002C22.3725 39.531 22.7534 39.2629 23.1384 38.9961C23.2894 38.8889 23.3863 38.8109 23.4346 38.7286C23.4889 38.4486 23.4889 38.4486 23.2775 37.7061L21.8606 32.7519C21.5817 31.7991 21.441 31.6949 20.8554 32.0081L20.795 31.7964C21.5331 31.2815 22.2874 30.7707 23.0566 30.2645L23.1174 30.4762C22.3714 31.0207 22.4808 31.4092 22.6989 32.1836L24.1158 37.1378C24.3585 37.9785 24.459 38.3266 25.2376 37.8325L25.2981 38.0442C22.3954 39.9535 19.7099 41.9247 17.2824 43.9439L17.2219 43.7322C17.7932 43.1672 17.8224 43.0035 17.5351 41.9803L16.1182 37.026C15.8294 36.0387 15.689 35.9461 15.1155 36.367L15.0548 36.1553C15.7022 35.6167 16.368 35.0816 17.0513 34.55L17.1121 34.7619C16.6455 35.2274 16.5721 35.4226 16.8553 36.4342L18.2722 41.3885C18.5581 42.3799 18.5749 42.3669 19.0009 42.0373C19.3462 41.7673 19.6961 41.4984 20.0503 41.2303C20.5922 40.8123 20.5922 40.8123 20.3125 39.8223L18.8956 34.8678C18.6143 33.9055 18.4971 33.8162 17.9307 34.1334L17.8699 33.9217C18.5384 33.415 19.2228 32.9114 19.9224 32.412L19.9828 32.6239C19.4553 33.1096 19.4164 33.3272 19.6848 34.2873L21.1017 39.2415C21.3887 40.2316 21.3887 40.2316 21.9961 39.8002ZM11.242 47.2075C11.3033 46.3819 11.4904 43.8683 11.7458 41.3982C11.769 41.1738 11.8311 40.8755 11.823 40.6501C11.8225 40.6374 11.7296 39.4335 10.9793 40.1106C10.9518 40.1355 10.9164 40.1706 10.8897 40.196L10.8292 39.9843C11.4329 39.3833 12.0687 38.7785 12.7369 38.1705L12.7974 38.3822C12.2056 38.9578 12.2083 39.2013 12.4853 40.1889L13.9046 45.1518C14.1873 46.1208 14.2956 46.2655 14.9038 45.7474L14.9643 45.9594C14.2964 46.5674 13.6606 47.1719 13.0566 47.7731L12.9961 47.5615C13.5269 46.9977 13.5639 46.7601 13.2801 45.7453L11.9999 41.2681C11.5663 45.5106 11.4213 47.8266 11.4213 47.8347C11.4216 47.846 11.5163 48.9173 12.0938 48.4535C12.1627 48.3982 12.2264 48.3377 12.2901 48.2769L12.3508 48.4886C11.7739 49.085 11.2285 49.6779 10.7142 50.2659L10.6537 50.0543C11.0992 49.5081 11.1232 49.2732 10.8389 48.2588L9.41934 43.2959C9.14287 42.3469 9.02919 42.1771 8.54727 42.6893L8.48679 42.4773C9.00085 41.889 9.54623 41.2964 10.1232 40.7L10.1837 40.9117C9.69823 41.4498 9.66852 41.6855 9.95633 42.7128L11.242 47.2075ZM7.5872 51.6866C7.57613 49.5253 7.81183 47.3665 7.64578 45.2039C7.64497 45.1923 7.48596 44.121 7.03886 44.5436C6.98054 44.5986 6.93032 44.661 6.88091 44.7239L6.82017 44.5122C7.26295 43.9326 7.73677 43.3483 8.24218 42.76L8.30266 42.9717C7.8804 43.5006 7.86015 43.7349 8.14876 44.7628L9.56837 49.7257C9.86427 50.7422 9.96632 50.8164 10.4091 50.3367L10.4699 50.5486C9.96417 51.1372 9.4906 51.7214 9.04782 52.3008L8.98735 52.0891C9.37316 51.5465 9.38829 51.3124 9.10291 50.2991L7.82235 45.8219C7.72786 50.0062 7.76566 52.3032 7.76647 52.3135C7.76728 52.3246 7.91388 53.3359 8.28835 52.9904C8.33506 52.9474 8.39743 52.8759 8.4741 52.7784L8.53458 52.9901C8.11799 53.5644 7.73217 54.1338 7.37741 54.6978L7.31694 54.4861C7.62391 53.9437 7.62688 53.7285 7.34151 52.715L5.92192 47.7518C5.64464 46.7966 5.55284 46.637 5.2105 47.1211L5.14976 46.9092C5.50479 46.3452 5.89033 45.7755 6.30719 45.2015L6.36766 45.4132C6.01938 45.9469 6.01128 46.1629 6.30152 47.1916L7.5872 51.6866ZM3.45774 50.4182L3.39726 50.2065C3.5957 49.7459 3.81629 49.2807 4.05874 48.8118C4.81848 47.3771 5.36197 48.8609 5.51046 49.3499C5.82148 50.3742 6.08202 52.3516 5.08496 53.2655L5.73401 55.535C5.93461 56.2299 6.05555 56.6495 6.25885 56.3236C6.26344 56.3161 6.26885 56.305 6.27344 56.2972C6.29909 56.248 6.32501 56.1986 6.35147 56.1492L6.41194 56.3609C6.11928 56.9117 5.85711 57.4562 5.62466 57.9951L5.56418 57.7834C5.58497 57.7348 5.60603 57.6868 5.62736 57.6382C5.79475 57.2027 5.66732 56.7537 5.47455 56.0739L4.03471 51.04C3.83978 50.3645 3.71099 49.9182 3.5328 50.2478C3.52875 50.2551 3.52443 50.2654 3.52092 50.2729C3.49959 50.3213 3.47853 50.3699 3.45774 50.4182ZM2.83976 55.3997C2.66832 54.7769 2.4966 54.154 2.32516 53.5311C2.52873 52.5573 2.83895 51.5586 3.25743 50.5383C3.43778 51.1337 3.61785 51.7287 3.79793 52.324C3.78335 52.3594 3.76878 52.3948 3.75447 52.4301C3.63082 52.0619 3.37324 51.2948 3.16211 51.6507C3.14186 51.685 3.12243 51.7347 3.10785 51.7714C3.04494 51.9452 2.98527 52.1183 2.92884 52.2906L4.63111 58.2424C4.8668 59.0607 4.90407 59.0796 4.98588 59.121C5.05337 59.0815 5.05337 59.0815 5.09089 58.9887C5.10574 58.9468 5.12086 58.9047 5.13598 58.8628L5.19646 59.0745C5.00693 59.5983 4.84629 60.1159 4.71454 60.6269L4.65406 60.4153C4.66486 60.3729 4.67621 60.3305 4.68755 60.2878C4.78339 59.8642 4.65865 59.4255 4.46993 58.7613L2.76766 52.8095C2.72473 52.9553 2.6845 53.1008 2.64617 53.2458C2.57435 53.5333 2.48498 53.8908 2.8608 55.2987C2.85378 55.3325 2.84651 55.3662 2.83976 55.3997ZM2.14534 57.6015C2.20366 57.9768 2.2933 58.3618 2.54466 59.3191C3.79362 64.022 4.71049 67.2646 4.71859 67.2926L4.5134 66.5748C4.38623 66.1263 4.26123 65.6773 4.1365 65.2286C4.00393 64.7812 3.87272 64.3333 3.74366 63.8846L3.12512 61.7209C3.32599 62.4178 3.53119 63.113 3.74124 63.8074C3.25877 62.0598 3.01335 60.2468 2.29168 58.5659C2.29114 58.5845 2.2906 58.6096 2.29006 58.6282L2.22958 58.4166C2.16587 58.0785 2.11753 57.7362 2.08459 57.3898L2.14534 57.6015ZM2.52063 59.6075L2.52765 59.6318L2.46609 59.4166C2.46393 59.4096 2.46204 59.4026 2.46015 59.3958L2.52063 59.6075ZM33.4244 24.4484C30.6033 26.0249 32.5332 31.4527 34.2349 31.9514C36.1586 32.5154 38.3417 29.5037 36.201 25.5462C35.7085 24.6361 34.8273 23.7068 33.4244 24.4484ZM108.211 3.8495C107.797 3.87326 107.501 3.92834 107.188 4.03931L108.044 7.03291C111.876 7.436 110.99 5.32228 110.566 4.77718C110.049 4.11301 109.256 3.8009 108.211 3.8495ZM148.043 13.5126C147.823 13.2391 147.591 12.9705 147.344 12.7067C148.245 15.9719 148.792 18.0322 148.797 19.1048C149.124 19.4221 149.43 19.7466 149.716 20.0787C149.853 20.2366 149.876 20.2517 149.922 20.2817C149.949 20.2237 149.957 20.2083 149.74 19.4466L148.043 13.5126ZM68.1029 10.9593C67.8655 11.0306 67.6336 11.1348 67.3267 11.3087L68.2535 14.5499C69.2727 14.4211 69.9461 14.3358 70.3381 13.4429C70.6742 12.6773 70.2873 11.6753 69.7152 11.2201C69.2846 10.8773 68.712 10.7847 68.1029 10.9593ZM4.21965 49.2146C4.16295 49.3274 4.11489 49.4765 4.0644 49.6976L4.99154 52.9388C5.24506 52.6621 5.5326 52.3483 5.35576 51.0146C5.26207 50.311 4.87546 49.0005 4.46886 49.0037C4.37625 49.0043 4.29255 49.0753 4.21965 49.2146ZM84.24 8.23247C84.0523 9.38369 83.8647 10.5352 83.6773 11.6864C84.6379 11.4847 85.5983 11.2906 86.5573 11.1046C85.7857 10.1467 85.0138 9.18903 84.24 8.23247ZM48.8234 18.8705C48.6722 20.106 48.5223 21.3414 48.3744 22.5771C49.2567 22.211 50.1455 21.8503 51.0405 21.495C50.3013 20.6203 49.5621 19.7455 48.8231 18.8705M124.67 7.63742C124.477 7.62068 124.355 7.62149 124.22 7.64066L125.177 10.9877C127.833 11.6494 126.947 9.29271 126.674 8.83157C126.526 8.58265 125.946 7.7608 124.67 7.63742ZM109.223 7.45329C108.902 7.46975 108.417 7.49406 108.196 7.5629L109.11 10.7595C112.925 11.2933 112.42 9.2001 111.817 8.41849C111.281 7.72382 110.408 7.39929 109.223 7.45329Z" fill="white"/>
<path d="M2.52044 59.6075L2.52746 59.6318L2.4659 59.4167C2.46401 59.4099 2.46185 59.4026 2.45996 59.3959L2.52044 59.6075Z" fill="black"/>
<path d="M2.14446 57.6013C2.2098 58.0201 2.26137 58.3505 3.66638 63.49C4.01358 64.7584 4.35646 66.0279 4.71771 67.2925L4.51252 66.5743C4.25819 65.6771 4.00062 64.7808 3.74305 63.8842L3.12424 61.7208C3.32511 62.4176 3.53057 63.1128 3.74062 63.8069C3.41772 62.6384 3.09778 61.4694 2.78163 60.299C2.36801 58.7647 2.34803 58.6983 2.29079 58.5654C2.29052 58.5843 2.28971 58.6092 2.28917 58.6281C2.27109 58.5643 2.24679 58.4798 2.2287 58.4164C2.16498 58.0784 2.11665 57.736 2.08398 57.3896L2.14446 57.6013Z" fill="black"/>
<path d="M2.15937 53.9505C2.15424 53.9813 2.14911 54.0121 2.14425 54.0429C2.31218 54.7459 2.2706 54.7991 2.23712 54.8415C1.26868 54.5942 3.51821 62.6628 4.08275 63.6455C4.13351 63.7332 4.13351 63.7332 4.20992 63.7935C4.28038 63.7521 4.59897 63.3728 3.94479 59.9364C3.93075 59.9262 3.91185 59.9121 3.89781 59.9016C4.06305 60.8636 4.40647 62.8655 4.09787 62.9965C3.70801 62.7591 1.68878 55.8329 2.22281 55.2775C2.31542 55.281 2.44204 55.2856 2.91938 56.6088C2.92397 56.5818 2.92856 56.5551 2.93315 56.5284C2.67504 55.669 2.4172 54.8099 2.15937 53.9505Z" fill="black"/>
<path d="M3.25746 50.5384C2.83898 51.5586 2.52877 52.5573 2.3252 53.5312C2.49664 54.154 2.66808 54.7769 2.83979 55.3997C2.84654 55.3663 2.85356 55.3325 2.86085 55.2988C2.48287 53.8827 2.57736 53.5144 2.64621 53.2458C2.68428 53.1008 2.72478 52.9553 2.7677 52.8095L4.46997 58.7613C4.65869 59.4255 4.78343 59.8642 4.68731 60.2878C4.67597 60.3305 4.6649 60.3729 4.6541 60.4153L4.71458 60.627C4.84633 60.1159 5.00671 59.5983 5.19651 59.0745L5.13603 58.8629C5.12064 58.9047 5.10579 58.9468 5.09094 58.9887C5.05449 59.0791 5.05449 59.0791 4.99753 59.1202C4.90411 59.0834 4.86928 59.0699 4.63088 58.2424L2.92889 52.2906C2.98531 52.1183 3.04498 51.9453 3.10789 51.7714C3.15756 51.6453 3.28959 51.3094 3.55418 51.8856C3.61951 52.0281 3.71752 52.3203 3.75451 52.4302C3.76882 52.3948 3.78339 52.3594 3.79797 52.324C3.61762 51.7287 3.43754 51.1337 3.25746 50.5384Z" fill="black"/>
<path d="M4.05822 48.8115C3.81577 49.2805 3.59519 49.7457 3.39648 50.2063L3.45696 50.4179C3.47802 50.3696 3.49908 50.3213 3.52041 50.2727C3.68456 49.9438 3.8101 50.3243 3.89326 50.5756C3.94402 50.7295 3.98938 50.8847 4.03419 51.04L5.47376 56.0736C5.66248 56.7389 5.79883 57.2197 5.62685 57.6379C5.60552 57.6865 5.58446 57.7348 5.56367 57.7832L5.62415 57.9951C5.85661 57.4562 6.11876 56.9114 6.41116 56.3609L6.35068 56.1492C6.32449 56.1984 6.2983 56.2478 6.27265 56.2972C6.05937 56.6638 5.93679 56.2391 5.73349 55.5347L5.08444 53.2652C6.55668 51.9077 5.41383 48.23 4.67838 48.1892C4.48561 48.1787 4.28285 48.382 4.05822 48.8115ZM5.25912 52.5932C5.1892 52.7223 5.18191 52.7304 4.99103 52.9385L4.06389 49.6973C4.29662 48.6784 4.63086 49.0035 4.80933 49.2883C5.29611 50.0643 5.61092 51.9045 5.25912 52.5932Z" fill="black"/>
<path d="M8.24255 42.7602C7.73714 43.3488 7.26358 43.9331 6.8208 44.5124L6.88128 44.7241C7.2976 44.2057 7.39803 44.3523 7.64615 45.2044C7.59566 47.3981 7.57298 49.0029 7.58756 51.6868L6.30215 47.1918C6.01192 46.1631 6.02002 45.9474 6.36803 45.4134L6.30755 45.2017C5.89096 45.776 5.50515 46.3454 5.15039 46.9094L5.21087 47.1213C5.55348 46.6372 5.64501 46.7968 5.92255 47.752L7.34187 52.7152C7.62752 53.729 7.62455 53.9442 7.31731 54.4866L7.37778 54.6982C7.73282 54.1342 8.11863 53.5648 8.53495 52.9906L8.47447 52.7786C8.05383 53.3078 7.99308 53.0972 7.76683 52.314C7.75549 50.1725 7.76089 48.5034 7.82299 45.8224L9.10327 50.2996C9.38918 51.3142 9.37515 51.5316 8.98798 52.0896L9.04846 52.3013C9.49097 51.7216 9.9648 51.1374 10.4702 50.5491L10.4095 50.3369C9.96669 50.8166 9.86463 50.7424 9.56873 49.7262L8.14941 44.763C7.86052 43.7352 7.88077 43.5008 8.3033 42.9719L8.24255 42.7602Z" fill="black"/>
<path d="M10.6967 36.8013C10.6924 36.8056 10.6867 36.8116 10.6824 36.8159C10.5353 36.9684 10.515 37.2209 10.529 37.9018C10.5342 38.1575 10.5504 38.9356 10.1216 39.3044C9.77012 39.6068 9.50904 39.2396 9.38349 39.063C9.12296 38.6969 8.91237 38.445 8.76738 38.8C8.61268 39.1791 8.83056 40.0444 9.37108 40.0503C9.84544 40.0557 10.646 39.1335 10.8819 38.6515C11.2807 37.8375 11.1754 37.0562 10.9502 36.8272C10.8376 36.7128 10.7504 36.75 10.6967 36.8013ZM12.7365 38.1704C12.0685 38.7784 11.4327 39.3832 10.8287 39.9842L10.8892 40.1961C11.4381 39.6618 11.5739 39.8036 11.8226 40.65C11.5901 42.9163 11.4438 44.4754 11.2418 47.2074L9.95614 42.7127C9.66806 41.6854 9.69776 41.4497 10.1835 40.9119L10.123 40.6999C9.54576 41.2963 9.00038 41.889 8.48633 42.4773L8.54708 42.6892C9.029 42.1773 9.14267 42.3471 9.41913 43.2959L10.8387 48.2588C11.123 49.2731 11.099 49.508 10.6535 50.0542L10.714 50.2661C11.228 49.6778 11.7734 49.0852 12.3504 48.4888L12.2899 48.2768C11.7281 48.8106 11.6584 48.6556 11.4211 47.8349C11.5812 45.669 11.7205 43.9811 11.9994 41.268L13.2799 45.7452C13.5667 46.7711 13.5321 46.9917 12.9959 47.5614L13.0564 47.7731C13.6604 47.1721 14.2962 46.5673 14.9641 45.9593L14.9036 45.7473C14.2954 46.2654 14.1871 46.1207 13.9044 45.1518L12.4851 40.1889C12.2081 39.2012 12.2054 38.9577 12.7969 38.3821L12.7365 38.1704Z" fill="black"/>
<path d="M23.0566 30.2644C22.2871 30.7706 21.5328 31.2815 20.7949 31.7963L20.8554 32.008C21.4499 31.7005 21.5814 31.7979 21.8605 32.7518L23.2774 37.7061C23.4094 38.1699 23.468 38.3991 23.4794 38.4971C23.4213 38.7952 23.4213 38.7952 23.1384 38.9961C22.7531 39.2631 22.3724 39.5309 21.9961 39.8001C21.5897 40.0871 21.5206 40.0814 21.4245 40.0736C21.3673 40.0018 21.296 39.9124 21.1016 39.2415L19.6847 34.2872C19.4163 33.3274 19.4582 33.0942 19.9828 32.6238L19.9223 32.4122C19.2227 32.9116 18.5383 33.4149 17.8698 33.9217L17.9306 34.1333C18.4968 33.8161 18.6139 33.9055 18.8953 34.8677L20.3121 39.8222C20.5921 40.8123 20.5921 40.8123 20.0503 41.2302C19.696 41.4983 19.3461 41.7672 19.0008 42.0372C18.5737 42.3642 18.5572 42.3768 18.2721 41.3887L16.8552 36.4344C16.5861 35.4733 16.622 35.2389 17.1117 34.7619L17.0512 34.5502C16.3679 35.0815 15.7021 35.6166 15.0547 36.1553L15.1154 36.3669C15.667 35.9733 15.8142 35.9865 16.1182 37.026L17.5351 41.9805C17.8107 42.9624 17.8121 43.1614 17.2219 43.7322L17.2823 43.9438C19.7098 41.9246 22.3954 39.9534 25.298 38.0441L25.2375 37.8324C24.4589 38.3265 24.3584 37.9785 24.1157 37.1377L22.6988 32.1835C22.4807 31.4092 22.3711 31.0207 23.1173 30.4764L23.0566 30.2644Z" fill="black"/>
<path d="M28.7478 26.6422C27.7448 27.2392 27.7248 27.9948 27.6949 29.1388C27.6395 31.2374 27.3174 31.7884 26.3779 32.3792L25.7566 30.2068C25.4723 29.182 25.5471 28.9509 26.3295 28.4406L26.2688 28.2287C25.3562 28.7859 24.4615 29.3491 23.5859 29.9177L23.6467 30.1296C24.4499 29.6431 24.5965 29.8151 24.8743 30.7625L26.2936 35.7254C26.5798 36.7521 26.5142 36.967 25.7531 37.4949L25.8136 37.7065C26.6892 37.138 27.5836 36.5748 28.4965 36.0175L28.436 35.8056C27.6379 36.261 27.4729 36.1779 27.1762 35.1697L26.5094 32.8384C26.92 32.5979 27.345 32.3489 30.3353 34.9173C30.8969 34.5879 31.4647 34.2607 32.0387 33.9356L31.9782 33.724C31.2625 34.0901 30.972 34.0461 29.247 32.7191C28.4919 32.1381 27.9049 31.7747 27.4937 31.8897C27.5315 31.8332 27.6312 31.6829 27.693 31.55C27.7108 31.512 27.734 31.4609 27.7513 31.4226C28.2429 30.3445 27.8641 29.1471 28.2146 28.0499C28.4446 27.3301 29.4376 27.9606 29.6623 27.2316C29.7867 26.8277 29.5915 26.4 29.1625 26.4751C29.0823 26.4894 28.9452 26.5296 28.7478 26.6422Z" fill="black"/>
<path d="M33.4057 23.9701C29.8802 25.9283 30.4469 31.6704 33.4351 32.4917C36.4533 33.3214 39.5468 28.9508 37.5497 25.3066C36.8253 23.9847 35.1268 23.067 33.4057 23.9701ZM35.5264 31.7647C32.8754 33.0852 31.4367 28.0718 32.2096 25.8851C32.7294 24.4159 34.9408 22.9723 36.2943 25.7259C37.3529 27.8795 37.564 30.6882 35.5264 31.7647Z" fill="black"/>
<path d="M44.1812 19.0211C42.1493 19.9056 40.1576 20.8187 38.2129 21.7577L38.2734 21.9696C39.19 21.5587 39.373 21.65 39.6732 22.6654L40.1403 24.2991C41.3539 28.6121 40.4284 28.9788 39.7688 28.8133C38.9986 28.6202 38.8401 29.4269 39.0704 29.7571C39.4292 30.2717 40.4368 29.8541 40.8976 28.9993C41.3747 28.1148 41.4422 27.0422 40.4873 23.6346L39.8633 21.4532C40.6204 21.0973 41.3842 20.7455 42.1542 20.3978L43.8564 26.3496C44.128 27.3275 44.097 27.5608 43.1294 28.0387L43.1901 28.2506C44.2509 27.7625 45.3241 27.2822 46.4086 26.81L46.3481 26.598C45.354 26.9981 45.1996 26.8308 44.918 25.8745L43.4987 20.9113C43.2298 19.9428 43.2643 19.6918 44.2417 19.2328L44.1812 19.0211Z" fill="black"/>
<path d="M48.7161 16.9139C48.6513 16.94 48.5868 16.966 48.522 16.9922C48.1943 19.7277 48.0493 22.4845 47.5444 25.1989C47.3975 25.9895 47.2836 26.0867 46.7695 26.4155L46.83 26.6274C47.6278 26.2827 48.4316 25.9419 49.241 25.6061L49.1802 25.3944C48.1767 25.726 48.0377 25.4533 48.1497 24.5197C48.2013 24.0858 48.2698 23.5075 48.3217 23.0736C49.3166 22.6597 50.3199 22.2523 51.331 21.8522C52.8623 23.6651 52.9873 23.8131 51.9176 24.284L51.9784 24.4956C53.0065 24.0879 54.0427 23.6878 55.0862 23.295L55.0255 23.0833C54.3165 23.2969 54.0114 23.1627 53.3078 22.3271C51.7764 20.5233 50.2459 18.719 48.7161 16.9139ZM48.3746 22.5774C48.5228 21.3414 48.6724 20.1059 48.8233 18.8707C49.5623 19.7455 50.3015 20.6205 51.0407 21.495C50.1457 21.8503 49.2569 22.211 48.3746 22.5774Z" fill="black"/>
<path d="M63.1187 11.8572C61.859 12.2697 61.789 12.9471 61.6621 14.1766C61.4545 16.1899 60.9154 16.5882 59.8187 16.9656L59.1974 14.7933C58.9153 13.7708 59.0246 13.5619 60.0338 13.195L59.9734 12.9833C58.8003 13.3742 57.6339 13.7752 56.4746 14.1855L56.5351 14.3972C57.5505 14.0686 57.7484 14.172 58.0494 15.1877L59.4688 20.1509C59.7523 21.1785 59.6518 21.3742 58.6415 21.7625L58.7023 21.9741C59.8613 21.5637 61.0279 21.1628 62.2008 20.7721L62.1403 20.5602C61.1154 20.8718 60.9159 20.7667 60.6167 19.7564L59.9502 17.4251C60.4539 17.2604 61.0252 17.0739 64.5361 20.0092C65.243 19.7832 65.9514 19.561 66.6618 19.3423L66.601 19.1303C65.6771 19.3766 65.2816 19.2073 63.3455 17.7386C62.4575 17.0652 61.7599 16.626 61.2407 16.6718C61.2869 16.6278 61.4275 16.4934 61.5096 16.3789C61.5336 16.3452 61.566 16.3003 61.5898 16.2663C61.8074 15.9561 62.0882 15.3486 62.1905 14.2166C62.2774 13.2522 62.3603 13.1337 62.4211 13.0467C62.8773 12.3944 63.821 13.3237 64.2033 12.5381C64.3191 12.3005 64.2222 11.7616 63.6293 11.764C63.5323 11.7646 63.3649 11.781 63.1187 11.8572Z" fill="black"/>
<path d="M67.8495 10.5348C66.833 10.8282 65.8189 11.1298 64.8086 11.4387L64.8691 11.6506C64.9722 11.619 65.0751 11.5877 65.1779 11.5564C66.0457 11.3077 66.1726 11.7411 66.3826 12.4592L67.8225 17.4931C68.0093 18.1606 68.1443 18.6425 67.2844 18.9216C67.1815 18.953 67.0786 18.9843 66.9758 19.0159L67.0363 19.2275C68.215 18.8671 69.3984 18.5169 70.5855 18.1773L70.5248 17.9656C70.4214 17.9953 70.3177 18.025 70.2143 18.0547C69.3757 18.2818 69.2123 17.8784 68.9961 17.1457L68.347 14.8764C73.0383 14.431 71.9238 11.4298 71.1074 10.774C70.1163 9.97806 68.9062 10.2332 67.8495 10.5348ZM69.2931 14.3721C68.9983 14.4553 68.8406 14.4752 68.2536 14.5497L67.3265 11.3086C69.7269 9.94863 70.6741 12.2095 70.4184 13.2106C70.3803 13.3599 70.1465 14.1186 69.2931 14.3721Z" fill="black"/>
<path d="M78.4328 7.78296C76.2735 8.28244 74.1155 8.81944 71.9658 9.39181L72.0263 9.60375C72.1275 9.57675 72.2285 9.55002 72.3298 9.5233C73.2245 9.29921 73.3352 9.67584 73.556 10.4264L75.0056 15.4951C75.1922 16.159 75.3269 16.6388 74.4362 16.8885C74.335 16.9153 74.234 16.942 74.133 16.969L74.1935 17.1807C76.3431 16.6083 78.5011 16.071 80.6605 15.5718C80.7156 14.8661 80.7704 14.1603 80.8254 13.4546C80.7434 13.4735 80.6607 13.4921 80.5781 13.511C80.1516 15.2254 79.6232 15.355 78.571 15.6134C78.0956 15.7284 77.6204 15.8453 77.1452 15.9638C76.95 16.0105 76.7905 16.0443 76.6625 16.0186C76.3809 15.8496 76.3809 15.8496 76.2119 15.2619L75.4767 12.6921C76.0907 12.5363 76.7052 12.3838 77.3197 12.2342C78.456 11.9678 78.6369 12.3646 78.965 13.0852L79.1934 13.0315L78.4158 10.3117C78.3394 10.3295 78.2633 10.3476 78.1871 10.3654C78.4444 11.5045 77.8407 11.6573 77.2011 11.8193C76.5864 11.9688 75.9722 12.1214 75.3582 12.2772L74.4767 9.19499C75.2427 9.00087 76.0091 8.81161 76.7762 8.62667C77.962 8.34642 78.2665 8.56565 78.7679 9.52249C78.8472 9.50413 78.9266 9.48577 79.006 9.46741C78.8151 8.90611 78.624 8.34453 78.4328 7.78296Z" fill="black"/>
<path d="M84.1744 6.34996C84.1012 6.36454 84.0286 6.37912 83.9554 6.3937C82.7699 13.8219 82.7699 13.8219 82.7151 14.0462C82.5377 14.7722 82.3989 14.8529 81.8379 15.0784L81.8984 15.29C82.7804 15.0921 83.6625 14.9004 84.544 14.7152L84.4835 14.5036C83.3906 14.6507 83.2464 14.3683 83.389 13.4992C83.4548 13.0948 83.5426 12.5551 83.6085 12.1506C84.6933 11.9217 85.7773 11.7027 86.8599 11.4935C88.4561 13.4787 88.5865 13.6407 87.4398 13.9069L87.5003 14.1186C88.6054 13.9047 89.7088 13.7014 90.8104 13.5087L90.7496 13.2967C89.9586 13.3818 89.6705 13.1701 88.9458 12.2832C87.3594 10.302 85.7692 8.32411 84.1744 6.34996ZM83.6779 11.6865C83.865 10.535 84.0529 9.38381 84.2402 8.23231C85.1158 9.31145 85.7873 10.1435 86.5578 11.1047C85.5985 11.2907 84.6385 11.4848 83.6779 11.6865Z" fill="black"/>
<path d="M95.0077 4.71545C92.7568 5.02431 90.4894 5.3815 88.2129 5.78459C88.3554 6.39962 88.4983 7.01465 88.6408 7.62968C88.7197 7.61564 88.7988 7.60161 88.8776 7.58784C88.6181 6.22413 89.5339 6.067 90.1398 5.96306C90.4738 5.90717 90.8075 5.85236 91.1409 5.7989L92.8429 11.7508C93.0189 12.3779 93.1577 12.8736 92.2908 13.0337C92.1901 13.0505 92.0891 13.0672 91.9884 13.0842L92.0489 13.2959C93.2306 13.0975 94.4091 12.9117 95.5841 12.7389L95.5233 12.5272C95.4264 12.5416 95.3292 12.5559 95.2323 12.5704C94.351 12.6871 94.2201 12.2408 94.0217 11.565L92.3194 5.61315C92.7117 5.55268 93.1037 5.49355 93.4952 5.43604C94.8114 5.25596 95.1737 6.07429 95.3902 6.56297C95.4682 6.55217 95.5465 6.54137 95.6246 6.53084C95.4855 6.12154 95.3 5.57616 95.161 5.16686C95.1148 5.03133 95.0535 4.85071 95.0077 4.71545Z" fill="black"/>
<path d="M104.213 3.71957C103.052 3.81001 101.884 3.91504 100.709 4.03437L100.769 4.24604C101.778 4.15263 102.003 4.29491 102.272 5.19828C101.449 6.87436 100.627 8.55017 99.8049 10.2268L98.5192 5.73205C98.2371 4.71123 98.3475 4.53628 99.3635 4.39507L99.303 4.18313C98.1296 4.313 96.9501 4.45636 95.7656 4.61376L95.8264 4.82543C96.9085 4.71258 97.0716 4.90886 97.3556 5.87352L98.7749 10.8364C99.0416 11.7968 98.9984 12.0192 97.9325 12.1907L97.9933 12.4023C99.1777 12.2452 100.357 12.1016 101.53 11.972L101.47 11.7603C100.303 11.8559 100.242 11.6637 99.9842 10.854C100.805 9.17438 101.627 7.49533 102.449 5.81628L103.729 10.2935C104.013 11.3181 103.909 11.4782 102.876 11.6113L102.936 11.823C104.111 11.7039 105.279 11.5989 106.44 11.5084L106.38 11.2965C105.319 11.3494 105.158 11.1488 104.876 10.1906L103.456 5.22744C103.192 4.27628 103.236 4.04247 104.273 3.93124L104.213 3.71957Z" fill="black"/>
<path d="M108.201 3.46465C107.062 3.52081 105.914 3.59209 104.759 3.67795L104.82 3.88961C104.919 3.88232 105.019 3.87504 105.119 3.86775C105.967 3.82104 106.102 4.27975 106.306 4.97442L107.745 10.0083C107.925 10.6498 108.067 11.1566 107.226 11.233C107.126 11.24 107.026 11.2476 106.926 11.2549L106.986 11.4668C108.251 11.3728 109.506 11.2964 110.751 11.2378C115.564 10.9865 112.845 7.94266 112.812 7.91242C112.402 7.53687 111.933 7.33033 111.193 7.19938C112.995 6.44855 112.088 4.39314 110.523 3.74895C109.906 3.49489 109.255 3.41525 108.201 3.46465ZM109.181 7.05197C108.664 7.07654 108.419 7.07249 108.044 7.03307L107.187 4.03919C109.584 3.19143 111.475 5.0376 110.844 6.36836C110.576 6.93345 109.845 7.01768 109.181 7.05224M110.501 10.838C110.044 10.8566 109.641 10.8337 109.109 10.7597L108.195 7.56306C108.213 7.55793 110.086 7.1354 111.25 7.89514C112.078 8.43592 112.476 9.47267 112.101 10.1139C111.838 10.5653 111.329 10.7953 110.501 10.838Z" fill="black"/>
<path d="M120.573 3.47873C119.556 3.42014 118.514 3.37613 117.448 3.34751L117.509 3.55918C117.599 3.56161 117.689 3.56404 117.779 3.56674C118.577 3.61642 118.702 4.04651 118.908 4.759L119.547 6.99342C118.904 6.96966 118.252 6.9513 117.591 6.93888C117.079 6.92943 116.564 6.92322 116.047 6.92079L115.408 4.68611C115.219 4.01519 115.083 3.53029 115.903 3.52786C115.991 3.52894 116.08 3.53002 116.169 3.53137L116.109 3.3197C115.026 3.30377 113.933 3.30324 112.829 3.31781L112.89 3.52948C112.981 3.5284 113.071 3.52732 113.161 3.52624C113.994 3.54244 114.111 3.9485 114.324 4.68557L115.764 9.71947C115.957 10.4114 116.085 10.8683 115.268 10.8915C115.177 10.8926 115.087 10.8936 114.996 10.895L115.057 11.1067C116.16 11.0918 117.254 11.0924 118.336 11.1083L118.276 10.8966C118.187 10.8953 118.098 10.8939 118.009 10.8928C117.178 10.8577 117.054 10.4295 116.848 9.72001L116.169 7.34467C116.686 7.34737 117.2 7.35358 117.712 7.36303C118.374 7.37545 119.026 7.39354 119.669 7.4173L120.348 9.79291C120.527 10.4341 120.669 10.9406 119.885 10.932C119.796 10.9293 119.706 10.9269 119.615 10.9244L119.676 11.1361C120.742 11.1647 121.783 11.2087 122.801 11.2676L122.74 11.0556C122.657 11.0508 122.573 11.0462 122.489 11.0416C121.71 10.9741 121.593 10.5699 121.381 9.83638L119.942 4.80247C119.74 4.08971 119.618 3.65935 120.383 3.67636C120.466 3.68095 120.55 3.68581 120.634 3.69067L120.573 3.47873Z" fill="black"/>
<path d="M129.366 4.44894C128.503 4.30153 127.615 4.16761 126.702 4.04801L126.762 4.25968C126.813 4.26616 126.864 4.27291 126.914 4.27966C127.674 4.39764 127.792 4.80721 128.008 5.55076L129.447 10.5847C129.649 11.2977 129.771 11.7281 129.057 11.6498C128.994 11.6414 128.932 11.633 128.869 11.6249L128.93 11.8366C129.843 11.9565 130.731 12.0901 131.594 12.2378L131.533 12.0259C131.487 12.018 131.442 12.0102 131.396 12.0026C130.787 11.8903 130.608 11.6743 130.328 10.7175L128.889 5.68359C128.686 4.9657 128.563 4.53237 129.29 4.63739C129.335 4.64522 129.381 4.65278 129.427 4.66061L129.366 4.44894ZM124.064 3.74778C123.1 3.6541 122.11 3.57499 121.096 3.51074L121.156 3.72268C122.084 3.81042 122.221 4.01075 122.509 4.99323L123.928 9.95613C124.199 10.9289 124.174 11.1171 123.263 11.0879L123.323 11.2996C124.319 11.3625 125.29 11.44 126.238 11.5312C129.686 11.8172 127.425 8.4542 127.396 8.41964C126.658 7.54596 125.827 7.32619 124.354 7.18769C124.264 7.17986 124.174 7.17176 124.084 7.1642L123.485 5.07099C123.201 4.05098 123.285 3.90573 124.125 3.95972L124.064 3.74778ZM125.885 11.1287C125.712 11.1109 125.507 11.0701 125.177 10.988L124.22 7.641C126.192 7.36129 127.619 9.72502 126.891 10.7089C126.654 11.0293 126.325 11.1668 125.885 11.1287Z" fill="black"/>
<path d="M135.486 5.83924C134.879 5.66159 134.255 5.49258 133.613 5.33247L133.673 5.54414C133.922 5.60921 133.986 5.64323 134.062 5.6921L134.262 5.89918L134.37 6.12381C134.413 6.42889 134.413 6.42889 134.317 6.72291C134.163 7.22994 134.008 7.73617 133.849 8.24158C132.206 5.8414 132.206 5.8414 132.136 5.68049C132.054 5.49231 131.999 5.19019 132.554 5.27821L132.493 5.06654C131.63 4.87107 130.737 4.69098 129.815 4.52683L129.876 4.7385C130.576 4.89644 131.004 5.34732 131.863 6.53824C132.454 7.36386 133.042 8.19136 133.625 9.02292C132.649 12.0079 132.611 12.1245 131.86 12.0821L131.921 12.2938C132.632 12.4194 133.327 12.5541 134.003 12.6977L133.943 12.486C133.699 12.4196 133.395 12.3367 133.263 11.9296C133.23 11.6456 133.23 11.6456 133.337 11.3046C133.536 10.6941 133.733 10.0834 133.925 9.47056C135.597 11.9239 135.729 12.1488 135.792 12.2568L135.904 12.5311L135.919 12.7396C135.795 12.884 135.779 12.9026 135.495 12.8395L135.556 13.0511C136.339 13.2417 137.098 13.4456 137.83 13.6621L137.769 13.4502C137.256 13.2525 137.038 12.9723 136.044 11.4884C135.424 10.5551 134.8 9.62419 134.171 8.69678C135.007 5.93751 135.007 5.93751 135.547 6.05091L135.486 5.83924Z" fill="black"/>
<path d="M142.277 8.56662C141.722 8.2645 141.141 7.974 140.532 7.6951L140.593 7.90704C141.108 8.15057 141.245 8.3536 141.51 9.26453C141.311 10.5157 141.153 11.4385 140.841 13.0095L139.555 8.51451C139.271 7.50422 139.313 7.37381 139.859 7.58197L139.798 7.3703C139.17 7.10167 138.515 6.84518 137.834 6.60111L137.895 6.81278C138.511 7.06009 138.629 7.29147 138.91 8.26234L140.33 13.2252C140.604 14.195 140.604 14.3686 140.001 14.178L140.062 14.3897C140.743 14.634 141.398 14.8905 142.026 15.1589L141.965 14.9472C141.322 14.6397 141.27 14.4669 141.02 13.6364C141.277 12.327 141.443 11.4312 141.687 9.88253L142.968 14.3597C143.267 15.4229 143.202 15.4723 142.699 15.272L142.76 15.484C143.368 15.7626 143.95 16.0531 144.505 16.3555L144.444 16.1435C143.924 15.8352 143.815 15.6011 143.538 14.6451L142.119 9.68193C141.854 8.74481 141.841 8.53341 142.338 8.77856L142.277 8.56662Z" fill="black"/>
<path d="M145.983 11.0935C145.574 10.7401 145.137 10.3966 144.674 10.064L144.735 10.2757C144.773 10.3032 144.811 10.3305 144.849 10.358C145.197 10.6423 145.313 11.046 145.524 11.7784L146.163 14.0131C145.679 13.6435 145.163 13.2866 144.615 12.9423L143.976 10.7077C143.783 10.03 143.667 9.62069 143.974 9.75812C143.988 9.76433 144.005 9.77594 144.018 9.78323C144.06 9.81077 144.101 9.83803 144.142 9.86557L144.082 9.6539C143.595 9.32911 143.081 9.01538 142.541 8.71273L142.602 8.9244C142.646 8.94924 142.69 8.97408 142.734 8.99918C143.14 9.26161 143.256 9.6647 143.467 10.3964L144.906 15.4303C145.099 16.1101 145.226 16.5594 144.841 16.3644C144.796 16.3393 144.752 16.3145 144.708 16.2896L144.769 16.5013C145.309 16.804 145.822 17.118 146.309 17.4428L146.249 17.2308L146.125 17.1485C145.739 16.8647 145.624 16.4657 145.416 15.7416L144.736 13.3662C145.284 13.7105 145.8 14.0676 146.284 14.437L146.963 16.8126C147.216 17.703 147.185 17.723 147.091 17.7819C147.048 17.7713 146.993 17.7468 146.955 17.7233C146.918 17.6957 146.879 17.6685 146.842 17.6409L146.902 17.8529C147.365 18.1855 147.801 18.5289 148.211 18.8823L148.15 18.6704C148.117 18.6415 148.083 18.6126 148.049 18.5834C147.72 18.2754 147.605 17.8769 147.398 17.1539L145.958 12.12C145.76 11.425 145.651 11.0422 145.905 11.1904C145.917 11.1974 145.932 11.2101 145.943 11.2182C145.977 11.2471 146.01 11.2763 146.044 11.3054L145.983 11.0935Z" fill="black"/>
<path d="M148.508 13.8781C147.976 13.1027 147.341 12.3621 146.605 11.6588L146.666 11.8704C147.556 12.783 148.85 18.5534 148.467 18.8777C148.427 18.8688 148.372 18.8558 148.337 18.8339L149.039 21.2889C149.062 21.3097 149.086 21.3308 149.109 21.3516C149.066 21.172 148.701 19.6031 149.143 19.8019C149.199 19.827 149.266 19.881 149.366 19.9819C149.579 20.206 149.782 20.4336 149.975 20.6647C150.214 20.9623 150.542 21.3699 151.315 23.8209C151.332 23.8452 151.349 23.8695 151.366 23.894L150.663 21.4391C150.383 21.0184 150.36 20.9558 149.859 19.2065L148.624 14.8886C148.423 14.184 148.411 14.0806 148.4 13.9898C148.414 13.9782 148.434 13.9626 148.449 13.951C148.492 13.9947 148.532 14.0406 148.568 14.09L148.508 13.8781ZM148.796 19.1047C148.792 18.0321 148.244 15.9721 147.344 12.7069C147.59 12.9706 147.823 13.2393 148.042 13.5125L149.739 19.4468C149.911 20.0486 149.934 20.1717 149.944 20.2533C149.934 20.2603 149.921 20.2697 149.911 20.2768C149.861 20.2382 149.839 20.2203 149.716 20.0789C149.43 19.7468 149.123 19.422 148.796 19.1047Z" fill="black"/>
<path d="M150.089 17.1801C149.993 16.8515 149.882 16.5275 149.755 16.2081L149.816 16.42C149.972 16.8485 150.095 17.281 150.385 18.3621C150.607 19.1971 150.827 20.0327 151.042 20.8694C150.628 19.5532 150.368 18.7274 149.825 17.0634C149.354 15.6212 149.321 15.5113 149.315 15.3846C149.359 15.416 149.359 15.416 149.401 15.4959L149.341 15.2842C149.139 14.8833 148.913 14.4905 148.661 14.1057L148.722 14.3174C148.889 14.633 149.01 14.9416 149.309 15.8188C151.399 22.0066 151.4 22.2599 151.401 22.4448C151.22 22.2331 151.22 21.9402 151.075 21.7123C151.021 21.8854 151.413 22.9003 151.555 23.1157C151.569 23.1109 151.586 23.1041 151.6 23.099C151.595 22.95 151.558 22.7232 151.109 20.9977C150.791 19.7854 150.44 18.5816 150.138 17.365C150.141 17.3731 150.146 17.3836 150.15 17.392L150.089 17.1801Z" fill="black"/>
</g>
<mask id="mask2_338_1413" style="mask-type:luminance" maskUnits="userSpaceOnUse" x="-37" y="-39" width="229" height="162">
<path d="M-36.2461 -38.0678H191.053V122.649H-36.2461V-38.0678Z" fill="white"/>
</mask>
<g mask="url(#mask2_338_1413)">
<path d="M17.7606 47.6486C-4.12428 66.673 5.67463 82.6651 39.5969 83.3018C73.5185 83.9384 118.912 68.9822 140.797 49.9578C162.682 30.9338 152.895 14.937 118.974 14.3004C85.0516 13.6638 39.6455 28.6246 17.7606 47.6486ZM141.692 49.9746C119.49 69.2746 73.4281 84.4541 39.0142 83.8083C4.60035 83.1624 -5.33652 66.9319 16.8656 47.6319C39.0677 28.3319 85.1374 13.1527 119.551 13.7985C153.965 14.4443 163.894 30.6746 141.692 49.9746Z" fill="white"/>
</g>
</g>
<defs>
<clipPath id="clip0_338_1413">
<rect width="154.5" height="84.8434" fill="white"/>
</clipPath>
</defs>
</svg>
