<svg width="27" height="27" viewBox="0 0 27 27" fill="none" xmlns="http://www.w3.org/2000/svg">
<path fill-rule="evenodd" clip-rule="evenodd" d="M13.4961 0C6.05377 0 0 6.05547 0 13.4999C0 16.4522 0.952111 19.1903 2.57063 21.4127L0.888519 26.4284L6.0775 24.77C8.21171 26.1827 10.7586 27 13.5039 27C20.9462 27 27 20.9443 27 13.5001C27 6.05571 20.9462 0.00022316 13.5039 0.00022316L13.4961 0ZM9.72723 6.85734C9.46546 6.2304 9.26707 6.20667 8.8705 6.19054C8.73547 6.1827 8.58499 6.17487 8.41817 6.17487C7.90225 6.17487 7.36282 6.32561 7.03746 6.6589C6.6409 7.06364 5.65696 8.00796 5.65696 9.94455C5.65696 11.8811 7.06926 13.7541 7.25959 14.0162C7.45799 14.2778 10.0129 18.3096 13.98 19.9527C17.0822 21.2384 18.0028 21.1192 18.7088 20.9685C19.7402 20.7463 21.0336 19.9841 21.3589 19.0637C21.6843 18.1429 21.6843 17.3572 21.5889 17.1905C21.4937 17.0239 21.2317 16.9289 20.8352 16.7302C20.4386 16.5318 18.5104 15.5794 18.1454 15.4524C17.7882 15.3175 17.4472 15.3652 17.1776 15.7462C16.7967 16.278 16.4239 16.8178 16.1223 17.143C15.8842 17.397 15.4953 17.4288 15.1701 17.2938C14.7337 17.1114 13.512 16.6825 12.0043 15.3413C10.8379 14.3018 10.0445 13.0082 9.81457 12.6194C9.58437 12.2227 9.79081 11.9922 9.97308 11.7781C10.1715 11.5319 10.3618 11.3575 10.5602 11.1272C10.7586 10.8972 10.8697 10.778 10.9967 10.5081C11.1317 10.2463 11.0363 9.97635 10.9411 9.7779C10.8459 9.57945 10.0526 7.64286 9.72723 6.85734Z" fill="#B390FB"/>
</svg>
